<?xml version="1.0" standalone="no"?><!DOCTYPE svg PUBLIC "-//W3C//DTD SVG 1.1//EN" "http://www.w3.org/Graphics/SVG/1.1/DTD/svg11.dtd"><svg t="1590287692877" class="icon" viewBox="0 0 1024 1024" version="1.1" xmlns="http://www.w3.org/2000/svg" p-id="20387" xmlns:xlink="http://www.w3.org/1999/xlink" width="200" height="200"><defs><style type="text/css"></style></defs><path d="M921.231507 1024H102.359056a102.359056 102.359056 0 0 1-102.359056-102.359056V102.768493a102.359056 102.359056 0 0 1 102.359056-102.359057h409.436226v102.359057H102.359056v818.872451h818.872451v-409.436226h102.359057v409.436226a102.359056 102.359056 0 0 1-102.359057 102.359056zM563.384246 341.879248l383.181128-341.879248 76.769292 68.37585-383.181127 341.879248zM818.872451 768.102359H204.718113v-102.359056h614.154338v102.359056zM204.718113 461.02519h307.077169v102.359056H204.718113V461.02519z m0-204.718113h307.077169v102.359057H204.718113V256.307077z" fill="" p-id="20388"></path></svg>