<?xml version="1.0" standalone="no"?><!DOCTYPE svg PUBLIC "-//W3C//DTD SVG 1.1//EN" "http://www.w3.org/Graphics/SVG/1.1/DTD/svg11.dtd"><svg t="1591178181467" class="icon" viewBox="0 0 1222 1024" version="1.1" xmlns="http://www.w3.org/2000/svg" p-id="9532" xmlns:xlink="http://www.w3.org/1999/xlink" width="238.671875" height="200"><defs><style type="text/css"></style></defs><path d="M636.168258 792.774194H129.024c-25.6 0-34.023226-1.552516-42.578581-5.945807-6.408258-3.303226-11.197935-7.927742-14.534193-13.939613-4.327226-7.795613-5.84671-15.326968-5.84671-39.473548V125.423484c0-24.113548 1.519484-31.710968 5.84671-39.473549 3.336258-6.011871 8.125935-10.603355 14.534193-13.90658 8.588387-4.426323 16.978581-5.978839 42.578581-5.978839h931.11329c25.6 0 34.023226 1.552516 42.578581 5.945807 6.408258 3.303226 11.197935 7.927742 14.534194 13.939612 4.327226 7.795613 5.84671 15.326968 5.846709 39.473549v256.033032a33.032258 33.032258 0 0 0 66.064516 0V125.423484c0-34.452645-3.633548-52.653419-14.170838-71.580903A99.823484 99.823484 0 0 0 1132.940387 13.278968C1113.781677 3.402323 1095.38271 0 1060.13729 0H129.024C93.778581 0 75.412645 3.402323 56.220903 13.278968c-17.969548 9.249032-32.371613 23.122581-42.050064 40.563613C3.633548 72.770065 0 90.970839 0 125.423484v607.991742c0 34.452645 3.633548 52.653419 14.170839 71.580903 9.711484 17.474065 24.080516 31.314581 42.050064 40.563613 19.15871 9.876645 37.557677 13.278968 72.803097 13.278968h507.144258a33.032258 33.032258 0 0 0 0-66.064516z" p-id="9533"></path><path d="M1075.596387 875.024516a264.258065 264.258065 0 1 0-264.258064-457.694968 264.258065 264.258065 0 0 0 264.258064 457.694968z m-33.032258-57.211871a198.193548 198.193548 0 1 1-198.193548-343.271226 198.193548 198.193548 0 0 1 198.193548 343.271226z" p-id="9534"></path><path d="M1059.080258 846.418581a33.032258 33.032258 0 0 1 45.122065 12.089806l49.548387 85.817807a33.032258 33.032258 0 0 1-57.211871 33.032258l-49.548387-85.817807a33.032258 33.032258 0 0 1 12.089806-45.122064z" p-id="9535"></path><path d="M594.580645 165.16129a65.502968 65.502968 0 0 1 65.172645 72.010323l-25.434838 255.339355a39.969032 39.969032 0 1 1-79.508646 0l-25.401806-255.339355A65.502968 65.502968 0 0 1 594.580645 165.16129z" p-id="9536"></path><path d="M594.580645 627.612903m-66.064516 0a66.064516 66.064516 0 1 0 132.129032 0 66.064516 66.064516 0 1 0-132.129032 0Z" p-id="9537"></path><path d="M429.419355 924.903226h330.32258a33.032258 33.032258 0 0 1 0 66.064516H429.419355a33.032258 33.032258 0 0 1 0-66.064516z" p-id="9538"></path></svg>