<?xml version="1.0" standalone="no"?><!DOCTYPE svg PUBLIC "-//W3C//DTD SVG 1.1//EN" "http://www.w3.org/Graphics/SVG/1.1/DTD/svg11.dtd"><svg t="1590286138885" class="icon" viewBox="0 0 1026 1024" version="1.1" xmlns="http://www.w3.org/2000/svg" p-id="4790" xmlns:xlink="http://www.w3.org/1999/xlink" width="200.390625" height="200"><defs><style type="text/css"></style></defs><path d="M826.784 212.768v70.208c0 13.088 14.752 20.704 25.408 13.12l167.424-118.944a16.096 16.096 0 0 0 0-26.24L852.192 31.968a16.096 16.096 0 0 0-25.408 13.12v70.208h-394.88c-17.056 0-32.864 8.896-41.696 23.488l-202.496 334.08H50.976a48.768 48.768 0 1 0 0 97.504h164.192c17.056 0 32.864-8.896 41.696-23.488l202.496-334.08h367.424zM852.224 732.512a16.096 16.096 0 0 0-25.408 13.12v81.024h-292.64L412.8 617.952a48.736 48.736 0 1 0-84.32 48.992l135.456 232.992c8.736 15.008 24.8 24.256 42.144 24.256h320.704v59.36c0 13.088 14.752 20.704 25.408 13.12l167.424-118.944a16.096 16.096 0 0 0 0-26.24l-167.392-118.976z" p-id="4791"></path></svg>