<?xml version="1.0" standalone="no"?><!DOCTYPE svg PUBLIC "-//W3C//DTD SVG 1.1//EN" "http://www.w3.org/Graphics/SVG/1.1/DTD/svg11.dtd"><svg t="1589365368394" class="icon" viewBox="0 0 1024 1024" version="1.1" xmlns="http://www.w3.org/2000/svg" p-id="8375" xmlns:xlink="http://www.w3.org/1999/xlink" width="200" height="200"><defs><style type="text/css"></style></defs><path d="M825.4 327.26666667c-20.7 0-40-5.1-57.6-13.4L665.7 415.96666667c15.7 26.6 25.3 57.3 25.3 90.4 0 35.7-10.8 68.8-28.7 96.7l102.6 97.5c18.2-9.3 38.6-15 60.5-15 74.3 0 134.4 60.1 134.4 134.3 0 74.3-60.1 134.4-134.4 134.4-74.3 0-134.3-60.1-134.3-134.4 0-20.7 5.1-40 13.4-57.6L598.9 662.06666667c-25.8 14.6-55.4 23.5-87.1 23.5-34.1 0-65.7-10.1-93-26.6l-102.6 97.6c10.2 18.9 16.5 40.3 16.5 63.4 0 74.3-60.1 134.4-134.3 134.4C124.1 954.26666667 64 894.16666667 64 819.86666667s60.1-134.3 134.4-134.3c21.4 0 41.3 5.5 59.3 14.4l103.1-98c-17.6-27.7-28.1-60.2-28.1-95.5 0-34.1 10.1-65.7 26.6-92.9l-101-101c-18.1 9.2-38.3 14.7-60 14.7-74.2 0-134.3-60.1-134.3-134.4C64 118.66666667 124.1 58.56666667 198.4 58.56666667c74.3 0 134.3 60.1 134.3 134.4 0 21.6-5.6 41.9-14.7 60l101 101c27.2-16.5 58.8-26.6 92.9-26.6 33.2 0 63.8 9.6 90.4 25.3l102.1-102.1C696 233.06666667 691 213.66666667 691 192.96666667c0-74.3 60.1-134.4 134.3-134.4 74.3 0 134.4 60.1 134.4 134.4 0 74.2-60.1 134.3-134.3 134.3z m0.7 547.2c29.8 0 53.9-24.1 53.9-53.9 0-29.8-24.1-53.9-53.9-53.9-29.8 0-53.9 24.1-53.9 53.9 0 29.8 24.2 53.9 53.9 53.9z m-627-734.7c-29.8 0-53.9 24.1-53.9 53.9 0 29.8 24.1 53.9 53.9 53.9 29.8 0 53.9-24.1 53.9-53.9 0.1-29.9-24.1-53.9-53.9-53.9z m0 626.8c-29.8 0-53.9 24.1-53.9 53.9 0 29.8 24.1 53.9 53.9 53.9 29.8 0 53.9-24.1 53.9-53.9 0.1-29.7-24.1-53.9-53.9-53.9z m312.8-349.7c-49.5 0-89.6 40.1-89.6 89.6s40.1 89.6 89.6 89.6c49.5 0 89.6-40 89.6-89.6 0-49.6-40.1-89.6-89.6-89.6z m314.2-277.1c-29.8 0-53.9 24.1-53.9 53.9 0 29.8 24.1 53.9 53.9 53.9 29.8 0 53.9-24.1 53.9-53.9-0.1-29.9-24.1-53.9-53.9-53.9z m0 0" p-id="8376"></path></svg>