<?xml version="1.0" standalone="no"?><!DOCTYPE svg PUBLIC "-//W3C//DTD SVG 1.1//EN" "http://www.w3.org/Graphics/SVG/1.1/DTD/svg11.dtd"><svg t="1589362032620" class="icon" viewBox="0 0 1024 1024" version="1.1" xmlns="http://www.w3.org/2000/svg" p-id="4543" xmlns:xlink="http://www.w3.org/1999/xlink" width="200" height="200"><defs><style type="text/css"></style></defs><path d="M187.076923 439.138462c-43.323077 0-78.769231 35.446154-78.769231 78.76923s35.446154 78.769231 78.769231 78.769231h454.892308c43.323077 0 78.769231-35.446154 78.769231-78.769231s-35.446154-78.769231-78.769231-78.76923H187.076923z m454.892308 196.923076H187.076923c-64.984615 0-118.153846-53.169231-118.153846-118.153846s53.169231-118.153846 118.153846-118.153846h454.892308c64.984615 0 118.153846 53.169231 118.153846 118.153846s-53.169231 118.153846-118.153846 118.153846zM187.076923 155.569231c-43.323077 0-78.769231 35.446154-78.769231 78.769231s35.446154 78.769231 78.769231 78.76923h454.892308c43.323077 0 78.769231-35.446154 78.769231-78.76923s-35.446154-78.769231-78.769231-78.769231H187.076923z m454.892308 196.923077H187.076923c-64.984615 0-118.153846-53.169231-118.153846-118.153846s53.169231-118.153846 118.153846-118.153847h454.892308c64.984615 0 118.153846 53.169231 118.153846 118.153847s-52.184615 118.153846-118.153846 118.153846zM187.076923 707.938462c-43.323077 0-78.769231 35.446154-78.769231 78.76923s35.446154 78.769231 78.769231 78.769231h454.892308c43.323077 0 78.769231-35.446154 78.769231-78.769231s-35.446154-78.769231-78.769231-78.76923H187.076923z m454.892308 196.923076H187.076923c-64.984615 0-118.153846-53.169231-118.153846-118.153846s53.169231-118.153846 118.153846-118.153846h454.892308c64.984615 0 118.153846 53.169231 118.153846 118.153846s-53.169231 118.153846-118.153846 118.153846z" fill="#585A6F" p-id="4544"></path><path d="M254.030769 207.753846c-14.769231 0-26.584615 11.815385-26.584615 26.584616 0 14.769231 11.815385 26.584615 26.584615 26.584615s26.584615-11.815385 26.584616-26.584615c0-14.769231-11.815385-26.584615-26.584616-26.584616m0 80.738462c-30.523077 0-55.138462-24.615385-55.138461-55.138462 0-30.523077 24.615385-55.138462 55.138461-55.138461s55.138462 24.615385 55.138462 55.138461c-0.984615 31.507692-25.6 55.138462-55.138462 55.138462M254.030769 492.307692c-14.769231 0-26.584615 11.815385-26.584615 26.584616 0 14.769231 11.815385 26.584615 26.584615 26.584615s26.584615-11.815385 26.584616-26.584615c0-13.784615-11.815385-26.584615-26.584616-26.584616m0 81.723077c-30.523077 0-55.138462-24.615385-55.138461-55.138461 0-30.523077 24.615385-55.138462 55.138461-55.138462s55.138462 24.615385 55.138462 55.138462c-0.984615 30.523077-25.6 55.138462-55.138462 55.138461M254.030769 768c-14.769231 0-26.584615 11.815385-26.584615 26.584615s11.815385 26.584615 26.584615 26.584616 26.584615-11.815385 26.584616-26.584616-11.815385-26.584615-26.584616-26.584615m0 81.723077c-30.523077 0-55.138462-24.615385-55.138461-55.138462 0-30.523077 24.615385-55.138462 55.138461-55.138461s55.138462 24.615385 55.138462 55.138461c-0.984615 30.523077-25.6 55.138462-55.138462 55.138462M611.446154 540.553846H459.815385c-3.938462 0-6.892308-2.953846-6.892308-6.892308V506.092308c0-3.938462 2.953846-6.892308 6.892308-6.892308h147.692307c3.938462 0 6.892308 2.953846 6.892308 6.892308v31.507692c-0.984615 1.969231-1.969231 2.953846-2.953846 2.953846M611.446154 253.046154H459.815385c-3.938462 0-6.892308-2.953846-6.892308-6.892308v-27.569231c0-3.938462 2.953846-6.892308 6.892308-6.892307h147.692307c3.938462 0 6.892308 2.953846 6.892308 6.892307v31.507693c-0.984615 1.969231-1.969231 2.953846-2.953846 2.953846M611.446154 807.384615H457.846154c-2.953846 0-4.923077-1.969231-4.923077-4.923077v-30.523076c0-2.953846 1.969231-4.923077 4.923077-4.923077h149.661538c2.953846 0 4.923077 1.969231 4.923077 4.923077v32.492307c0.984615 1.969231 0 2.953846-0.984615 2.953846M942.276923 264.861538h-151.630769c-3.938462 0-5.907692-2.953846-5.907692-5.907692v-28.553846c0-3.938462 2.953846-5.907692 5.907692-5.907692h147.692308c3.938462 0 5.907692 2.953846 5.907692 5.907692v32.492308c0 0.984615-0.984615 1.969231-1.969231 1.96923M942.276923 540.553846h-151.630769c-3.938462 0-5.907692-2.953846-5.907692-5.907692V506.092308c0-3.938462 2.953846-5.907692 5.907692-5.907693h147.692308c3.938462 0 5.907692 2.953846 5.907692 5.907693v32.492307c0 0.984615-0.984615 1.969231-1.969231 1.969231M942.276923 815.261538h-151.630769c-3.938462 0-5.907692-2.953846-5.907692-5.907692v-28.553846c0-3.938462 2.953846-5.907692 5.907692-5.907692h147.692308c3.938462 0 5.907692 2.953846 5.907692 5.907692v32.492308c0 0.984615-0.984615 1.969231-1.969231 1.96923" fill="#585A6F" p-id="4545"></path><path d="M952.123077 230.4v578.953846c0 3.938462-2.953846 6.892308-6.892308 6.892308h-27.569231c-3.938462 0-6.892308-2.953846-6.892307-6.892308v-578.953846c0-3.938462 2.953846-6.892308 6.892307-6.892308h27.569231c3.938462 0 6.892308 2.953846 6.892308 6.892308" fill="#585A6F" p-id="4546"></path></svg>