<?xml version="1.0" standalone="no"?><!DOCTYPE svg PUBLIC "-//W3C//DTD SVG 1.1//EN" "http://www.w3.org/Graphics/SVG/1.1/DTD/svg11.dtd"><svg t="1589365567077" class="icon" viewBox="0 0 1101 1024" version="1.1" xmlns="http://www.w3.org/2000/svg" p-id="10028" xmlns:xlink="http://www.w3.org/1999/xlink" width="215.0390625" height="200"><defs><style type="text/css"></style></defs><path d="M984.120209 644.278442a116.028212 116.028212 0 0 1-116.499234-115.243177c0-16.956762 3.375652-33.83502 10.048452-47.41613L711.320454 352.794848a115.08617 115.08617 0 0 1-73.24379 27.16222c-16.642748 0-33.363999-3.454155-46.552592-10.205458l-209.682919 288.107942c16.642748 20.332413 26.612695 47.494634 26.612696 74.57835 0 64.372892-53.225391 115.243177-116.42073 115.243177-63.273842 0-116.499233-54.245937-116.499234-118.618828s53.225391-115.243177 116.499234-115.243177c16.564244 0 33.206992 3.375652 46.552591 10.205458l212.980067-284.810794a119.639374 119.639374 0 0 1-26.612695-74.57835c0-64.372892 49.849739-115.243177 113.123582-115.243177a116.028212 116.028212 0 0 1 106.450782 162.73781l166.427476 128.824287c19.939896-16.956762 46.552591-27.083717 73.165287-27.083716 63.273842 0 116.499233 50.791782 116.499233 115.164673 0 64.529899-53.225391 115.243177-116.499233 115.243177z m-692.08709 23.786569a63.744864 63.744864 0 0 0-63.273843 64.372891c0 37.289175 29.909844 64.372892 63.273843 64.372892a63.744864 63.744864 0 0 0 63.195339-64.372892 63.744864 63.744864 0 0 0-63.195339-64.372891z m346.043545-467.802515c-33.363999 0-63.273842 30.537872-63.273843 64.372892 0 37.289175 29.909844 64.451395 63.273843 64.451395a63.823367 63.823367 0 0 0 63.273842-64.451395 63.823367 63.823367 0 0 0-63.273842-64.372892z m346.043545 267.775529c-36.582643 0-63.195339 27.16222-63.195339 64.451395 0 37.210672 29.909844 64.372892 63.195339 64.372892a63.823367 63.823367 0 0 0 63.273842-64.372892 63.823367 63.823367 0 0 0-63.273842-64.451395zM188.408464 952.32628h879.318c15.543698 0 31.322907 16.721251 31.322907 37.446182a31.950935 31.950935 0 0 1-31.322907 33.442503H188.408464h-3.925177c-11.775529 0-39.251763 0-58.877645-20.881938-19.625882-20.803435-31.401411-45.846059-31.40141-83.292242v-128.510273H31.401411c-15.700705 0-31.401411-16.799755-31.401411-33.363999 0-20.881938 15.700705-33.442502 31.401411-33.442502h62.802821V530.762343H31.401411c-15.700705 0-31.401411-16.721251-31.401411-33.363999 0-20.881938 15.700705-33.363999 31.401411-33.363999h62.802821v-193.118675H31.401411c-15.700705 0-31.401411-16.721251-31.401411-33.363999s15.700705-33.363999 31.401411-29.124808h62.802821V66.649494H31.401411C15.700705 66.649494 0 50.006746 0 33.363999c0-20.881938 15.700705-33.363999 31.401411-33.363999h94.204231c15.700705 0 31.401411 12.482061 31.401411 33.363999v877.355412c0 8.321374 0 24.964121 7.850353 33.206992 7.850353 8.399877 19.625882 8.399877 19.625881 8.399877h3.925177z" p-id="10029"></path></svg>