<?xml version="1.0" standalone="no"?><!DOCTYPE svg PUBLIC "-//W3C//DTD SVG 1.1//EN" "http://www.w3.org/Graphics/SVG/1.1/DTD/svg11.dtd"><svg t="1590286176988" class="icon" viewBox="0 0 1024 1024" version="1.1" xmlns="http://www.w3.org/2000/svg" p-id="5003" xmlns:xlink="http://www.w3.org/1999/xlink" width="200" height="200"><defs><style type="text/css"></style></defs><path d="M791.04 634.88c0-86.016-70.144-156.16-156.16-156.16-16.896 0-30.72 13.824-30.72 30.72s13.824 30.72 30.72 30.72c52.224 0 94.72 42.496 94.72 94.72 0 16.896 13.824 30.72 30.72 30.72s30.72-13.824 30.72-30.72z" p-id="5004"></path><path d="M958.464 915.456l-125.952-125.952c33.28-42.496 53.248-96.256 53.248-154.112 0-138.24-112.64-250.88-250.88-250.88-32.768 0-63.488 6.144-92.16 17.408V117.76c0-33.792-27.648-61.44-61.44-61.44H117.76c-33.792 0-61.44 27.648-61.44 61.44v788.48c0 33.792 27.648 61.44 61.44 61.44h363.52c33.792 0 61.44-27.648 61.44-61.44v-37.888c28.672 11.264 59.392 17.408 92.16 17.408 58.368 0 111.616-19.968 154.112-53.248l125.952 125.952c6.144 6.144 13.824 9.216 21.504 9.216s15.872-3.072 21.504-9.216c12.8-11.776 12.8-31.232 0.512-43.008zM436.736 481.28H117.76V327.68h363.52v109.056c-16.896 12.8-31.744 27.648-44.544 44.544zM117.76 542.72h283.648c-11.264 28.672-17.408 59.392-17.408 92.16 0 19.456 2.048 38.4 6.656 56.32H117.76v-148.48z m363.52-424.96v148.48H117.76V117.76h363.52z m0 788.48H117.76v-153.6h295.424c16.896 31.232 39.936 58.88 68.096 80.384V906.24z m-35.84-271.36c0-104.448 84.992-189.44 189.44-189.44s189.44 84.992 189.44 189.44-84.992 189.44-189.44 189.44-189.44-84.992-189.44-189.44z" p-id="5005"></path></svg>