<?xml version="1.0" standalone="no"?><!DOCTYPE svg PUBLIC "-//W3C//DTD SVG 1.1//EN" "http://www.w3.org/Graphics/SVG/1.1/DTD/svg11.dtd"><svg t="1590287630417" class="icon" viewBox="0 0 1194 1024" version="1.1" xmlns="http://www.w3.org/2000/svg" p-id="18835" xmlns:xlink="http://www.w3.org/1999/xlink" width="233.203125" height="200"><defs><style type="text/css"></style></defs><path d="M1056.411742 26.117107a49.490075 49.490075 0 0 0-44.370412-26.110281H49.203383a49.490075 49.490075 0 0 0-44.626395 26.622248 43.090497 43.090497 0 0 0 7.338183 48.722125l342.078814 369.639666v416.91122c0 17.236199 10.495309 33.107154 27.304869 40.871976l252.740694 116.387004a52.049907 52.049907 0 0 0 47.100899-1.706554 45.223689 45.223689 0 0 0 23.891761-37.800178l17.236199-534.578141 327.658429-370.492942c11.94588-13.652435 14.505712-32.424532 6.399578-48.466143z m-447.287887 879.728751L452.376841 833.573283V473.746305h170.911415l-14.079073 432.099553z m40.104027-521.86431c-2.559831-0.426639-5.034335-1.535899-7.679495-1.535899h-215.879121L156.289667 91.307482h751.822505L649.227882 383.981548z m180.04148 144.20384H1194.72797v80.464036H829.269362V528.185388z m0 175.263128H1194.72797v80.549364H829.269362v-80.549364z m0 161.098728H1194.72797v80.464036H829.269362v-80.464036z" fill="#7F8EA4" p-id="18836"></path></svg>