<?xml version="1.0" standalone="no"?><!DOCTYPE svg PUBLIC "-//W3C//DTD SVG 1.1//EN" "http://www.w3.org/Graphics/SVG/1.1/DTD/svg11.dtd"><svg t="1589361840400" class="icon" viewBox="0 0 1024 1024" version="1.1" xmlns="http://www.w3.org/2000/svg" p-id="2971" xmlns:xlink="http://www.w3.org/1999/xlink" width="200" height="200"><defs><style type="text/css"></style></defs><path d="M102.4 51.2a51.2 51.2 0 0 0-51.2 51.2v819.2a51.2 51.2 0 0 0 51.2 51.2h819.2a51.2 51.2 0 0 0 51.2-51.2V102.4a51.2 51.2 0 0 0-51.2-51.2H102.4z m0-51.2h819.2a102.4 102.4 0 0 1 102.4 102.4v819.2a102.4 102.4 0 0 1-102.4 102.4H102.4a102.4 102.4 0 0 1-102.4-102.4V102.4a102.4 102.4 0 0 1 102.4-102.4z m676.4544 403.712c49.3568 0 89.344 39.936 89.344 89.2928a89.088 89.088 0 0 1-173.2096 29.696l-77.312 9.4208a123.904 123.904 0 0 1-41.0624 89.088l56.9344 77.1584a88.576 88.576 0 0 1 38.144-8.8576 89.344 89.344 0 1 1-89.344 89.344c0.0512-21.2992 7.8336-41.8816 21.8624-57.9072l-58.368-79.2064a123.904 123.904 0 0 1-52.8384 12.032 123.6992 123.6992 0 0 1-63.6928-17.92l-73.216 63.5904c7.3216 12.9536 11.8784 27.6992 11.8784 43.6736a89.344 89.344 0 1 1-89.2928-89.344c19.1488 0.0512 37.7856 6.2976 53.0944 17.8688l68.608-59.5968c-19.968-22.1696-32.4096-51.2-32.4096-83.3024 0.1536-13.1584 2.4576-26.2656 6.7072-38.7072l-68.2496-41.472a89.344 89.344 0 1 1 25.8048-62.72c0 11.1616-2.2528 21.6576-5.9904 31.488l64.8192 39.424a124.7232 124.7232 0 0 1 101.9392-53.0432c9.216 0 18.432 1.1264 27.3408 3.2256l31.5392-89.0368A89.1904 89.1904 0 0 1 600.2176 153.6a89.344 89.344 0 0 1 0 178.688c-4.5056 0-8.8064-0.7168-13.056-1.3824l-31.9488 89.9072c28.416 16.384 49.2544 43.3152 57.9584 74.9056L690.176 486.4a89.0368 89.0368 0 0 1 88.6272-82.6368z" p-id="2972"></path></svg>