<?xml version="1.0" standalone="no"?><!DOCTYPE svg PUBLIC "-//W3C//DTD SVG 1.1//EN" "http://www.w3.org/Graphics/SVG/1.1/DTD/svg11.dtd"><svg t="1588219225349" class="icon" viewBox="0 0 1024 1024" version="1.1" xmlns="http://www.w3.org/2000/svg" p-id="5435" xmlns:xlink="http://www.w3.org/1999/xlink" width="200" height="200"><defs><style type="text/css"></style></defs><path d="M163.84 901.12c-34.304-12.8-71.68-48.128-88.064-83.968l-11.776-26.112V232.96l12.288-27.136c15.872-35.328 57.344-73.216 92.672-84.48 24.064-7.68 59.904-8.704 343.04-8.704s318.976 1.024 343.04 8.704c35.328 11.264 76.8 49.152 92.672 84.48l12.288 27.136v558.08l-11.776 26.112c-16.896 36.864-53.76 71.168-89.6 83.968-27.648 9.728-41.984 10.24-347.648 10.24-304.128-0.512-320.512-1.024-347.136-10.24z m284.16-74.752l25.6-14.848-30.72-1.536c-16.896-1.024-45.568 0-63.488 1.536l-32.256 3.584 14.336 15.36c13.312 13.312 17.408 14.848 37.888 13.312 13.312-1.536 34.304-8.704 48.64-17.408z m214.528 3.584l13.824-14.336-24.064-3.584c-33.792-4.608-94.208-4.096-94.208 1.024 0 8.192 53.248 31.744 71.68 31.744 13.824 0 22.016-3.584 32.768-14.848z m-191.488-30.208c0-6.656-153.088-83.968-158.72-80.384-7.168 4.608-6.144 14.336 3.072 37.888 8.704 22.016 25.6 35.84 50.688 41.984 22.016 5.12 104.96 5.632 104.96 0.512z m211.968-11.776c24.064-16.384 42.496-59.904 28.672-68.608-6.144-4.096-158.72 73.728-158.72 80.896 0 3.072 21.504 4.096 55.808 2.56 48.64-2.048 58.368-4.096 74.24-14.848z m-229.376-54.272c-34.304-55.296-75.264-106.496-84.992-106.496-11.264 0-30.72 32.768-30.72 51.712 0 13.312 4.608 22.016 19.456 36.864 20.48 20.48 120.32 75.264 122.88 67.584 1.024-2.56-11.264-24.576-26.624-49.664z m212.48-16.896c15.872-14.848 19.968-22.528 19.968-36.864 0-19.968-18.944-52.736-30.72-52.736-4.096 0-18.432 13.824-32.256 30.72-26.624 33.28-80.384 116.736-80.384 125.44 0 9.216 101.888-46.08 123.392-66.56z m-161.28-40.96c-3.072-51.2-8.704-78.848-19.456-93.696-5.632-7.168-9.728-7.68-25.6-3.584-56.32 15.872-52.224 69.12 12.288 162.304l27.136 39.424 4.096-28.16c2.56-15.36 3.072-49.664 1.536-76.288z m47.616 64.512c64-92.672 68.096-145.92 11.776-161.792-15.872-4.096-19.968-3.584-25.6 3.584-15.872 21.504-25.088 96.256-18.944 157.184 1.536 21.504 4.096 38.912 5.12 38.912 0.512 0 13.312-16.896 27.648-37.888z m-16.384-228.352c22.016-13.312 33.28-36.352 36.352-74.24 4.608-58.368-26.112-99.84-73.728-99.84-11.264 0-25.088 3.584-30.72 7.68-5.12 4.096-11.264 7.68-13.312 7.68-2.56 0-4.096-17.408-4.096-38.4v-38.4H399.36v240.64h25.6c19.456 0 25.6-2.048 25.6-7.68 0-6.144 3.072-5.632 16.896 2.56 20.992 12.8 47.616 12.8 68.608 0z m-254.464-15.36v-20.48H163.84V276.48H107.52v240.64h174.08v-20.48z m81.92-66.56V343.04H312.32v174.08h51.2V430.08z m291.84 38.912c0-48.64 6.656-79.36 16.896-80.896 3.584-0.512 12.8-1.024 20.992-1.024 12.288-0.512 15.872-3.584 21.504-19.456 6.144-17.408 5.632-19.968-3.072-24.576-15.36-8.192-33.28-6.144-48.128 5.632-10.752 8.704-13.312 9.216-13.312 2.56 0-6.144-5.632-8.192-23.04-8.192h-23.04v174.08h51.2v-48.128z m121.344 21.504l10.24-27.136 45.568-1.536 45.568-1.536 10.24 27.136 10.752 27.136 26.624 1.536c14.848 1.024 26.624-0.512 26.624-2.56s-20.48-55.808-45.568-119.296l-45.568-115.2-28.16-1.536-27.648-1.536-18.432 47.616c-9.728 26.112-30.72 80.384-46.08 120.832l-28.16 72.704h53.76l10.24-26.624zM363.52 296.96v-20.48H312.32v40.96h51.2v-20.48z" fill="#2c2c2c" p-id="5436"></path><path d="M468.48 474.624c-22.528-19.456-24.064-69.12-2.56-90.624 13.824-13.824 28.672-12.8 43.52 2.56 10.752 10.24 12.8 17.408 12.8 43.52s-2.048 33.28-12.8 43.52c-15.36 15.872-24.064 15.872-40.96 1.024zM806.912 408.576c2.048-6.656 8.704-25.088 14.336-40.96l11.264-29.184 13.824 37.376c7.68 20.48 13.824 38.912 13.824 40.448 0 2.048-12.8 3.584-28.672 3.584-27.136 0-28.16-0.512-24.576-11.264z" fill="#2c2c2c" p-id="5437"></path></svg>