<?xml version="1.0" standalone="no"?><!DOCTYPE svg PUBLIC "-//W3C//DTD SVG 1.1//EN" "http://www.w3.org/Graphics/SVG/1.1/DTD/svg11.dtd"><svg t="1599123730117" class="icon" viewBox="0 0 1024 1024" version="1.1" xmlns="http://www.w3.org/2000/svg" p-id="1868" xmlns:xlink="http://www.w3.org/1999/xlink" width="200" height="200"><defs><style type="text/css"></style></defs><path d="M912.840597 441.250973H865.709856V252.657457l-188.664071-188.664072H252.622179c-52.06959 0-94.296758 42.227168-94.296758 94.332036v282.925552H111.124126c-26.034795 0-47.13074 21.095945-47.130741 47.130741v282.925552c0 12.523513 4.93885 24.517863 13.793503 33.372515 8.854653 8.854653 20.849003 13.82878 33.337238 13.82878h47.201295v47.13074c0 52.06959 42.19189 94.296758 94.296758 94.332036h518.790919c52.06959-0.035278 94.296758-42.262445 94.296758-94.332036v-47.13074h47.201296c12.523513 0 24.517863-4.974128 33.337237-13.82878 8.854653-8.854653 13.793503-20.849003 13.793503-33.372515v-282.925552c-0.035278-25.999518-21.1665-47.13074-47.201295-47.130741z m-707.31388-282.925552c0-12.523513 4.93885-24.517863 13.793502-33.372515 8.854653-8.854653 20.849003-13.82878 33.337238-13.82878h377.151755v94.332036c0 25.011748 9.948255 49.000448 27.622283 66.709752 17.674028 17.709305 41.698005 27.622283 66.709753 27.622283h94.437868v141.462776H205.526717v-282.925552z m442.027078 456.314466v65.33393h-142.556379v55.138733h-65.33393v-215.686636H648.400455v65.33393h-143.438316v29.880043h142.591656zM322.75385 517.873704h92.391773L307.267027 625.717022l109.395529 109.395528H324.30606l-43.426603-43.426602v42.544665H215.545527v-213.852207h65.33393v39.369691L322.75385 517.873704z m495.789988 347.800875c0 12.523513-4.93885 24.517863-13.793502 33.372515-8.854653 8.854653-20.849003 13.82878-33.337238 13.82878H252.622179c-26.034795 0-47.095463-21.1665-47.095462-47.201295h-0.035278v-47.130741h613.052399v47.130741z m-33.125572-130.562029l-43.426603-43.426602v42.544665h-65.333931v-213.852207h65.333931v39.369691L783.866056 517.873704h92.391773l-107.878596 107.843318 109.395528 109.395528h-92.356495z" fill="#ffffff" p-id="1869"></path></svg>