<?xml version="1.0" standalone="no"?><!DOCTYPE svg PUBLIC "-//W3C//DTD SVG 1.1//EN" "http://www.w3.org/Graphics/SVG/1.1/DTD/svg11.dtd"><svg t="1590286319536" class="icon" viewBox="0 0 1024 1024" version="1.1" xmlns="http://www.w3.org/2000/svg" p-id="6656" xmlns:xlink="http://www.w3.org/1999/xlink" width="200" height="200"><defs><style type="text/css"></style></defs><path d="M744.8 731.52l130.848 130.88a32 32 0 1 1-45.248 45.248l-134.08-134.048A318.528 318.528 0 0 1 512 832c-176.736 0-320-143.264-320-320S335.264 192 512 192s320 143.264 320 320a318.88 318.88 0 0 1-87.2 219.52zM960 96v384a32 32 0 0 1-64 0V128H128v768h352a32 32 0 0 1 0 64H96a32 32 0 0 1-32-32V96a32 32 0 0 1 32-32h832a32 32 0 0 1 32 32zM512 768a256 256 0 1 0 0-512 256 256 0 0 0 0 512z" p-id="6657"></path></svg>