<?xml version="1.0" standalone="no"?><!DOCTYPE svg PUBLIC "-//W3C//DTD SVG 1.1//EN" "http://www.w3.org/Graphics/SVG/1.1/DTD/svg11.dtd"><svg t="1591174905287" class="icon" viewBox="0 0 1075 1024" version="1.1" xmlns="http://www.w3.org/2000/svg" p-id="3887" xmlns:xlink="http://www.w3.org/1999/xlink" width="209.9609375" height="200"><defs><style type="text/css"></style></defs><path d="M355.686 237.978c-56.32 0-102.4-46.08-102.4-102.4s46.08-102.4 102.4-102.4 102.4 46.08 102.4 102.4-46.08 102.4-102.4 102.4z m-225.28 296.96c-56.32 0-102.4-46.08-102.4-102.4s46.08-102.4 102.4-102.4 102.4 46.08 102.4 102.4-46.08 102.4-102.4 102.4z m158.72 430.08c-56.32 0-102.4-46.08-102.4-102.4s46.08-102.4 102.4-102.4 102.4 46.08 102.4 102.4-46.08 102.4-102.4 102.4z m455.68 25.6c-56.32 0-102.4-46.08-102.4-102.4s46.08-102.4 102.4-102.4 102.4 46.08 102.4 102.4-46.08 102.4-102.4 102.4z m-138.24-435.2c-56.32 0-102.4-46.08-102.4-102.4s46.08-102.4 102.4-102.4 102.4 46.08 102.4 102.4-46.08 102.4-102.4 102.4z m337.92 117.76c-56.32 0-102.4-46.08-102.4-102.4s46.08-102.4 102.4-102.4 102.4 46.08 102.4 102.4-40.96 102.4-102.4 102.4z m-158.72-435.2c-56.32 0-102.4-46.08-102.4-102.4s46.08-102.4 102.4-102.4 102.4 46.08 102.4 102.4-46.08 102.4-102.4 102.4z" p-id="3888"></path><path d="M207.206 478.618c-5.12 0-10.24-10.24-10.24-25.6 0-10.24 5.12-20.48 10.24-20.48h317.44c5.12 0 10.24 10.24 10.24 20.48s-5.12 20.48-10.24 20.48h-317.44v5.12z m225.28-317.44c-5.12 0-10.24-10.24-10.24-20.48s5.12-20.48 10.24-20.48h276.48c5.12 0 10.24 10.24 10.24 20.48s-5.12 20.48-10.24 20.48h-276.48z m-240.64 225.28c0 5.12-10.24 0-20.48-10.24-10.24-5.12-20.48-15.36-15.36-20.48l128-168.96c0-5.12 10.24 0 20.48 10.24 10.24 5.12 15.36 15.36 15.36 20.48l-128 168.96z m476.16 10.24c0 5.12-10.24 0-20.48-5.12s-15.36-15.36-15.36-15.36l102.4-158.72c0-5.12 10.24 0 20.48 5.12s15.36 15.36 15.36 15.36l-102.4 158.72z m163.84 450.56c0 5.12-10.24 0-25.6-5.12-10.24-5.12-15.36-15.36-15.36-15.36l107.52-184.32c0-5.12 10.24 0 25.6 5.12 10.24 5.12 15.36 15.36 15.36 15.36l-107.52 184.32z m-701.44-327.68c0-5.12 5.12-10.24 20.48-15.36 10.24-5.12 25.6 0 25.6 5.12l76.8 291.84c0 5.12-5.12 10.24-20.48 15.36s-25.6 0-25.6-5.12l-76.8-291.84z m481.28 5.12c0-5.12 5.12-15.36 20.48-15.36 10.24-5.12 20.48-5.12 25.6 0l102.4 281.6c0 5.12-5.12 15.36-20.48 15.36-10.24 5.12-20.48 5.12-25.6 0l-102.4-281.6z m220.16-327.68c0-5.12 5.12-15.36 20.48-15.36 10.24-5.12 20.48-5.12 20.48 0l102.4 302.08c0 5.12-5.12 15.36-20.48 15.36-10.24 5.12-25.6 5.12-25.6-5.12l-97.28-296.96z m-476.16 721.92c-5.12 0-10.24-10.24-10.24-20.48s5.12-20.48 10.24-20.48h317.44c5.12 0 10.24 10.24 10.24 20.48s-5.12 20.48-10.24 20.48h-317.44z" p-id="3889"></path></svg>