<?xml version="1.0" standalone="no"?><!DOCTYPE svg PUBLIC "-//W3C//DTD SVG 1.1//EN" "http://www.w3.org/Graphics/SVG/1.1/DTD/svg11.dtd"><svg t="1589444734715" class="icon" viewBox="0 0 1024 1024" version="1.1" xmlns="http://www.w3.org/2000/svg" p-id="14554" xmlns:xlink="http://www.w3.org/1999/xlink" width="200" height="200"><defs><style type="text/css"></style></defs><path d="M497.4 201.2l-1.4-6.4c-169.9 0-307.7 137.8-307.7 307.7h12.3c0-163.1 132.3-295.4 295.4-295.4l1.4-5.9z" fill="#ffffff" p-id="14555"></path><path d="M686.2 494.6c-5.7-62.7-54.2-173.9-208.1-182.4-122.6 0-168.2 71.3-168.2 74.1-2.9 2.9-2.9 8.6 0 11.4 2.8 2.9 5.7 5.7 8.6 8.6 2.9 0 54.2 22.8 57 91.2 0 54.2 11.4 122.6 59.9 153.9 17.1 11.4 34.2 17.1 57 17.1 20 0 39.9-5.7 62.7-14.3 8.6-2.8 11.4-11.4 8.6-17.1-2.9-8.6-11.4-11.4-17.1-8.6-39.9 14.3-71.3 14.3-94.1 0-42.8-25.7-51.3-94.1-51.3-131.1 0-62.7-37.1-94.1-57-108.3 14.3-17.1 57-48.5 134-48.5 134 8.6 176.7 99.8 179.6 153.9 2.9 45.6 0 74.1-22.8 94.1-5.7 5.7-5.7 14.3 0 20 5.7 5.7 14.3 5.7 20 0 31.2-25.7 34-62.7 31.2-114z" fill="#ffffff" p-id="14556"></path><path d="M560.8 545.9c-5.7-5.7-14.3-5.7-20 0-5.7 5.7-5.7 14.3 0 20 0 0 42.8 48.5 57 96.9 5.7 17.1 0 48.5-2.9 59.9-2.9 8.6 2.9 14.3 11.4 17.1h2.9c5.7 0 11.4-2.9 14.3-11.4 0-5.7 11.4-48.5 2.9-74.1-17.2-54.3-62.8-105.6-65.6-108.4z" fill="#ffffff" p-id="14557"></path><path d="M497.4 131.8C289.8 131.8 121 300.7 121 508.2c0 207.6 168.9 376.4 376.4 376.4s376.4-168.9 376.4-376.4c0-207.5-168.8-376.4-376.4-376.4z m0 725.1c-192.6 0-348.6-156.1-348.6-348.6s156.1-348.6 348.6-348.6S846 315.8 846 508.3 690 856.9 497.4 856.9z" fill="#ffffff" p-id="14558"></path></svg>