<?xml version="1.0" standalone="no"?><!DOCTYPE svg PUBLIC "-//W3C//DTD SVG 1.1//EN" "http://www.w3.org/Graphics/SVG/1.1/DTD/svg11.dtd"><svg t="1591174877868" class="icon" viewBox="0 0 1028 1024" version="1.1" xmlns="http://www.w3.org/2000/svg" p-id="2533" xmlns:xlink="http://www.w3.org/1999/xlink" width="200.78125" height="200"><defs><style type="text/css"></style></defs><path d="M486.642797 435.787756c0 16.474467-13.355215 29.828671-29.828671 29.828671L50.854029 465.616427c-16.474467 0-29.828671-13.355215-29.828671-29.828671L21.025358 29.828671c0-16.474467 13.355215-29.828671 29.828671-29.828671l405.960097 0c16.474467 0 29.828671 13.355215 29.828671 29.828671L486.642797 435.787756zM450.093013 55.469672c0-14.104928-11.433885-25.538814-25.538814-25.538814L76.975616 29.930859c-14.104928 0-25.538814 11.433885-25.538814 25.538814l0 347.578583c0 14.104928 11.433885 25.538814 25.538814 25.538814L424.554199 428.587069c14.104928 0 25.538814-11.433885 25.538814-25.538814L450.093013 55.469672zM1021.677002 440.757515c0 16.661643-13.506979 30.168622-30.168622 30.168622L580.918475 470.926137c-16.661643 0-30.168622-13.506979-30.168622-30.168622L550.749854 30.168622c0-16.661643 13.506979-30.168622 30.168622-30.168622l410.588893 0c16.661643 0 30.168622 13.506979 30.168622 30.168622L1021.677002 440.757515 1021.677002 440.757515zM990.780926 56.102022c0-14.265798-11.564402-25.8302-25.8302-25.8302L610.372796 30.271821c-14.265798 0-25.8302 11.564402-25.8302 25.8302l0 351.542653c0 14.265798 11.564402 25.8302 25.8302 25.8302l354.57793 0c14.265798 0 25.8302-11.564402 25.8302-25.8302L990.780926 56.102022zM644.321348 136.833286l289.854712 0 0 65.255403-289.854712 0 0-65.255403ZM644.321348 275.957194l289.854712 0 0 65.255403-289.854712 0 0-65.255403ZM253.834077 226.875766l42.69723-106.118315c-13.265169-5.057782-27.655413-7.836071-42.69723-7.836071-66.211515 0-119.887339 53.675824-119.887339 119.887339s53.675824 119.887339 119.887339 119.887339c56.985287 0 104.681617-39.759083 116.869263-93.049427L253.834077 226.875766zM393.566052 231.332563c0-53.453237-30.847512-99.693647-75.706871-121.914904l-47.229909 108.71044 121.192508 34.983582C392.964056 246.019253 393.566052 238.746731 393.566052 231.332563zM1027.747554 971.008125c0 16.474467-13.355215 29.828671-29.828671 29.828671L51.244568 1000.836796c-16.474467 0-29.828671-13.355215-29.828671-29.828671L21.415897 565.04904c0-16.474467 13.355215-29.828671 29.828671-29.828671l946.674315 0c16.474467 0 29.828671 13.355215 29.828671 29.828671L1027.747554 971.008125zM991.19777 596.760594c0-14.104928-11.433885-25.538814-25.538814-25.538814L77.366155 571.22178c-14.104928 0-25.538814 11.433885-25.538814 25.538814l0 341.50803c0 14.104928 11.433885 25.538814 25.538814 25.538814l888.292801 0c14.104928 0 25.538814-11.433885 25.538814-25.538814L991.19777 596.760594zM196.331782 754.023312l125.121167 0 0 209.784126-125.121167 0 0-209.784126ZM458.98536 626.541712l125.121167 0 0 337.265726-125.121167 0 0-337.265726ZM723.652338 815.915629l125.121167 0 0 147.891809-125.121167 0 0-147.891809Z" p-id="2534"></path></svg>