<?xml version="1.0" standalone="no"?><!DOCTYPE svg PUBLIC "-//W3C//DTD SVG 1.1//EN" "http://www.w3.org/Graphics/SVG/1.1/DTD/svg11.dtd"><svg t="1591178941030" class="icon" viewBox="0 0 1025 1024" version="1.1" xmlns="http://www.w3.org/2000/svg" p-id="14826" xmlns:xlink="http://www.w3.org/1999/xlink" width="200.1953125" height="200"><defs><style type="text/css"></style></defs><path d="M91.254374 339.5584a90.3168 90.3168 0 0 0 86.8352-66.1504h95.8464a83.1488 83.1488 0 0 1 58.7776 24.1664l97.8944 98.304a131.072 131.072 0 0 0 93.184 38.5024h105.472a90.7264 90.7264 0 1 0 0-48.7424h-105.2672a81.92 81.92 0 0 1-58.7776-24.3712l-98.0992-98.0992A130.4576 130.4576 0 0 0 273.935974 225.28H178.089574a90.5216 90.5216 0 1 0-86.8352 114.8928zM716.099174 368.64a41.984 41.984 0 1 1-40.96 41.984 41.984 41.984 0 0 1 40.96-41.984zM91.254374 207.0528a40.96 40.96 0 1 1-40.96 41.984 40.96 40.96 0 0 1 40.96-41.984z" p-id="14827"></path><path d="M252.227174 462.848a90.7264 90.7264 0 1 0-90.7264-90.7264 90.7264 90.7264 0 0 0 90.7264 90.7264z m0-132.7104a41.984 41.984 0 1 1-40.96 41.984 41.984 41.984 0 0 1 40.96-41.984zM593.014374 339.5584a90.112 90.112 0 0 0 86.8352-66.1504h153.3952a24.3712 24.3712 0 0 0 0-48.7424h-153.3952a90.5216 90.5216 0 1 0-86.8352 114.8928z m0-132.5056a40.96 40.96 0 1 1-40.96 41.984 41.984 41.984 0 0 1 40.96-41.984zM933.801574 542.72a90.3168 90.3168 0 0 0-86.8352 66.1504h-94.6176a130.4576 130.4576 0 0 0-93.184 38.7072l-99.9424 99.7376a83.3536 83.3536 0 0 1-58.7776 24.3712h-160.768a91.136 91.136 0 1 0-1.2288 48.7424h161.9968A131.8912 131.8912 0 0 0 594.447974 781.9264l99.9424-99.9424a83.1488 83.1488 0 0 1 58.7776-24.3712h94.6176a90.5216 90.5216 0 1 0 86.8352-114.8928zM252.227174 836.1984a40.96 40.96 0 1 1 40.96-40.96 41.984 41.984 0 0 1-40.96 40.96zM933.801574 675.84a40.96 40.96 0 1 1 40.96-40.96 41.984 41.984 0 0 1-40.96 40.96z" p-id="14828"></path><path d="M716.099174 703.6928a90.7264 90.7264 0 1 0 90.7264 90.7264 90.7264 90.7264 0 0 0-90.7264-90.7264z m0 132.5056a40.96 40.96 0 1 1 41.984-40.96 40.96 40.96 0 0 1-41.984 40.96zM909.020774 273.408h55.7056a24.3712 24.3712 0 0 0 0-48.7424h-55.7056a24.3712 24.3712 0 1 0 0 48.7424zM335.580774 629.3504a90.7264 90.7264 0 1 0 0-48.9472H178.089574a90.7264 90.7264 0 1 0 0 48.9472z m87.04-66.3552a40.96 40.96 0 1 1-41.984 41.984 40.96 40.96 0 0 1 41.984-41.984zM91.254374 646.7584a40.96 40.96 0 1 1 40.96-40.96 41.984 41.984 0 0 1-40.96 40.96z" p-id="14829"></path><path d="M202.870374 562.9952H225.807974a24.1664 24.1664 0 0 0 23.1424-18.432 24.1664 24.1664 0 0 0 23.1424 18.432H328.207974a24.3712 24.3712 0 0 0 0-48.7424h-57.1392a23.9616 23.9616 0 0 0-23.1424 18.2272 23.9616 23.9616 0 0 0-22.1184-18.2272H202.870374a24.3712 24.3712 0 1 0 0 48.7424zM176.451174 160.5632h56.7296a24.3712 24.3712 0 1 0 0-48.7424H176.451174a24.3712 24.3712 0 0 0 0 48.7424zM299.535974 160.5632h56.7296a23.9616 23.9616 0 0 0 23.7568-20.48 23.7568 23.7568 0 0 0 23.552 20.48h56.9344a24.3712 24.3712 0 1 0 0-48.7424h-56.9344a23.9616 23.9616 0 0 0-23.552 20.48 24.1664 24.1664 0 0 0-23.7568-20.48H299.535974a24.3712 24.3712 0 0 0 0 48.7424zM580.726374 514.2528a24.3712 24.3712 0 0 0 0 48.7424h56.9344a24.3712 24.3712 0 0 0 0-48.7424zM758.287974 514.2528h-56.7296a24.3712 24.3712 0 1 0 0 48.7424H758.287974a24.3712 24.3712 0 0 0 0-48.7424zM514.371174 863.4368h-56.7296a23.9616 23.9616 0 0 0-23.7568 20.48 23.7568 23.7568 0 0 0-23.552-20.48h-56.9344a24.3712 24.3712 0 0 0 0 48.7424H410.127974a23.9616 23.9616 0 0 0 23.552-20.48 24.1664 24.1664 0 0 0 23.7568 20.48h56.7296a24.3712 24.3712 0 0 0 0-48.7424zM630.492774 863.4368H573.967974a24.3712 24.3712 0 0 0 0 48.7424h56.9344a24.3712 24.3712 0 0 0 0-48.7424zM826.691174 514.2528a24.3712 24.3712 0 0 0 0 48.7424h21.9136a24.3712 24.3712 0 1 0 0-48.7424z" p-id="14830"></path></svg>