<?xml version="1.0" standalone="no"?><!DOCTYPE svg PUBLIC "-//W3C//DTD SVG 1.1//EN" "http://www.w3.org/Graphics/SVG/1.1/DTD/svg11.dtd"><svg t="1591176357919" class="icon" viewBox="0 0 1024 1024" version="1.1" xmlns="http://www.w3.org/2000/svg" p-id="6979" xmlns:xlink="http://www.w3.org/1999/xlink" width="200" height="200"><defs><style type="text/css"></style></defs><path d="M351.68 206.82666667c23.46666667 0 42.66666667-19.2 42.66666667-42.66666667v-85.33333333c0-23.46666667-19.2-42.66666667-42.66666667-42.66666667s-42.66666667 19.2-42.66666667 42.66666667v85.33333333c0 23.46666667 19.2 42.66666667 42.66666667 42.66666667zM670.4 206.82666667c23.46666667 0 42.66666667-19.2 42.66666667-42.66666667v-85.33333333c0-23.46666667-19.2-42.66666667-42.66666667-42.66666667s-42.66666667 19.2-42.66666667 42.66666667v85.33333333c0 23.46666667 19.2 42.66666667 42.66666667 42.66666667zM265.70666667 352c0 23.46666667 19.2 42.66666667 42.66666666 42.66666667h405.33333334c23.46666667 0 42.66666667-19.2 42.66666666-42.66666667s-19.2-42.66666667-42.66666666-42.66666667h-405.33333334c-23.46666667 0-42.66666667 19.2-42.66666666 42.66666667zM756.26666667 556.8c0-23.46666667-19.2-42.66666667-42.66666667-42.66666667H308.26666667c-23.46666667 0-42.66666667 19.2-42.66666667 42.66666667s19.2 42.66666667 42.66666667 42.66666667h405.33333333c23.46666667 0 42.66666667-19.2 42.66666667-42.66666667zM308.37333333 718.82666667c-23.46666667 0-42.66666667 19.2-42.66666666 42.66666666s19.2 42.66666667 42.66666666 42.66666667h228.26666667c23.46666667 0 42.66666667-19.2 42.66666667-42.66666667s-19.2-42.66666667-42.66666667-42.66666666h-228.26666667zM468.26666667 164.16h85.33333333c23.46666667 0 42.66666667-19.2 42.66666667-42.66666667s-19.2-42.66666667-42.66666667-42.66666666h-85.33333333c-23.46666667 0-42.66666667 19.2-42.66666667 42.66666666s19.2 42.66666667 42.66666667 42.66666667z" p-id="6980"></path><path d="M866.56 78.82666667h-82.45333333c-23.57333333 0-42.66666667 19.09333333-42.66666667 42.66666666s19.09333333 42.66666667 42.66666667 42.66666667h52.58666666v739.2H186.88v-739.2H237.86666667c23.57333333 0 42.66666667-19.09333333 42.66666666-42.66666667s-19.09333333-42.66666667-42.66666666-42.66666666h-80.96c-30.61333333 0-55.46666667 24.85333333-55.46666667 55.46666666v798.93333334c0 30.61333333 24.85333333 55.46666667 55.46666667 55.46666666h709.54666666c30.61333333 0 55.46666667-24.85333333 55.46666667-55.46666666v-798.93333334c0.10666667-30.61333333-24.74666667-55.46666667-55.36-55.46666666z" p-id="6981"></path></svg>