<?xml version="1.0" standalone="no"?><!DOCTYPE svg PUBLIC "-//W3C//DTD SVG 1.1//EN" "http://www.w3.org/Graphics/SVG/1.1/DTD/svg11.dtd"><svg t="1591086754074" class="icon" viewBox="0 0 1024 1024" version="1.1" xmlns="http://www.w3.org/2000/svg" p-id="6461" xmlns:xlink="http://www.w3.org/1999/xlink" width="200" height="200"><defs><style type="text/css"></style></defs><path d="M1024 85.325913v85.348174H341.325913V85.325913H1024zM128 256c70.38887 0 128-57.61113 128-128C256 57.58887 198.38887 0 128 0 57.58887 0 0 57.58887 0 128c0 70.38887 57.58887 128 128 128z m170.674087 213.325913H0v85.348174h298.674087v-85.348174z m426.651826 85.348174H1024v-85.348174H725.325913v85.348174zM640 512c0-70.41113-57.58887-128-128-128s-128 57.58887-128 128 57.58887 128 128 128 128-57.58887 128-128zM0 938.674087h682.674087v-85.348174H0v85.348174zM896 768c-70.41113 0-128 57.58887-128 128S825.58887 1024 896 1024 1024 966.41113 1024 896s-57.58887-128-128-128z" p-id="6462"></path></svg>