<?xml version="1.0" standalone="no"?><!DOCTYPE svg PUBLIC "-//W3C//DTD SVG 1.1//EN" "http://www.w3.org/Graphics/SVG/1.1/DTD/svg11.dtd"><svg t="1591086523637" class="icon" viewBox="0 0 1024 1024" version="1.1" xmlns="http://www.w3.org/2000/svg" p-id="4332" xmlns:xlink="http://www.w3.org/1999/xlink" width="200" height="200"><defs><style type="text/css"></style></defs><path d="M890.66666668 101.33333334h-164.512A127.712 127.712 0 0 0 602.66666668 5.33333334a128 128 0 0 0 0 256 127.712 127.712 0 0 0 123.488-96H890.66666668a32 32 0 0 1 32 32v288a32 32 0 0 1-32 32h-304a32 32 0 0 0 0 64H890.66666668a96 96 0 0 0 96-96V197.33333334a96 96 0 0 0-96-96z m-288 96a64 64 0 1 1 0.032-128.032A64 64 0 0 1 602.66666668 197.33333334z" fill="#1296db" p-id="4333"></path><path d="M874.96552291 714.81609479c-65.07971826 0-119.5245467 43.12030411-137.96319526 102.13849815H366.81379083a36.15136609 36.15136609 0 0 1-36.00617988-34.7720971A144.82324364 144.82324364 0 0 0 294.22068626 497.03678105c-53.61000773 0-99.88811191 29.3639108-125.04162264 72.59310458H112.73792481a36.29655229 36.29655229 0 0 1-36.29655231-36.29655229V206.66436272a36.29655229 36.29655229 0 0 1 36.29655231-36.29655229h235.92758988a36.29655229 36.29655229 0 0 0 0-72.59310458H112.73792481a108.88965687 108.88965687 0 0 0-108.88965688 108.88965687v326.66897062a108.88965687 108.88965687 0 0 0 108.88965688 108.88965688h36.29655228a144.82324364 144.82324364 0 0 0 109.07113963 140.10469183A108.81706377 108.81706377 0 0 0 366.81379083 889.58399408h366.0144333A145.18620917 145.18620917 0 1 0 874.96552291 714.81609479zM221.62758167 642.22299022a72.59310458 72.59310458 0 1 1 145.22250572 0.03629655A72.59310458 72.59310458 0 0 1 221.62758167 642.22299022z m653.33794124 290.37241832a72.59310458 72.59310458 0 1 1 0.03629656-145.22250571A72.59310458 72.59310458 0 0 1 874.96552291 932.59540854z" p-id="4334"></path></svg>