<?xml version="1.0" standalone="no"?><!DOCTYPE svg PUBLIC "-//W3C//DTD SVG 1.1//EN" "http://www.w3.org/Graphics/SVG/1.1/DTD/svg11.dtd"><svg t="1591085722721" class="icon" viewBox="0 0 1024 1024" version="1.1" xmlns="http://www.w3.org/2000/svg" p-id="2784" xmlns:xlink="http://www.w3.org/1999/xlink" width="200" height="200"><defs><style type="text/css"></style></defs><path d="M112.530286 261.595429A76.068571 76.068571 0 0 0 36.571429 337.554286 76.068571 76.068571 0 0 0 112.530286 413.549714a76.068571 76.068571 0 0 0 75.958857-75.922285 76.068571 76.068571 0 0 0-75.958857-75.958858m0 188.489143A112.64 112.64 0 0 1 0 337.517714 112.64 112.64 0 0 1 112.530286 225.097143a112.64 112.64 0 0 1 112.530285 112.530286 112.64 112.64 0 0 1-112.530285 112.493714" p-id="2785"></path><path d="M451.803429 73.142857a76.068571 76.068571 0 0 0-75.958858 75.958857 76.068571 76.068571 0 0 0 75.958858 75.958857A76.068571 76.068571 0 0 0 527.725714 149.101714a76.068571 76.068571 0 0 0-75.958857-75.958857m0 188.489143A112.64 112.64 0 0 1 339.273143 149.101714 112.64 112.64 0 0 1 451.803429 36.571429 112.64 112.64 0 0 1 564.297143 149.101714a112.64 112.64 0 0 1-112.530286 112.530286" p-id="2786"></path><path d="M904.155429 361.545143a76.068571 76.068571 0 0 0-75.958858 75.958857 76.068571 76.068571 0 0 0 75.958858 75.958857A76.068571 76.068571 0 0 0 980.114286 437.504a76.068571 76.068571 0 0 0-75.958857-75.958857m0 188.489143A112.64 112.64 0 0 1 791.625143 437.504 112.64 112.64 0 0 1 904.155429 324.973714 112.64 112.64 0 0 1 1016.685714 437.504a112.64 112.64 0 0 1-112.530285 112.530286" p-id="2787"></path><path d="M602.587429 789.357714A76.068571 76.068571 0 0 0 526.628571 865.316571 76.068571 76.068571 0 0 0 602.587429 941.275429a76.068571 76.068571 0 0 0 75.958857-75.958858 76.068571 76.068571 0 0 0-75.958857-75.958857m0 188.489143A112.64 112.64 0 0 1 490.057143 865.316571 112.64 112.64 0 0 1 602.587429 752.786286a112.64 112.64 0 0 1 112.530285 112.530285A112.64 112.64 0 0 1 602.587429 977.846857" p-id="2788"></path><path d="M187.904 638.573714a76.068571 76.068571 0 0 0-75.958857 75.958857 76.068571 76.068571 0 0 0 75.958857 75.958858 76.068571 76.068571 0 0 0 75.958857-75.958858 76.068571 76.068571 0 0 0-75.958857-75.958857m0 188.489143a112.64 112.64 0 0 1-112.530286-112.530286 112.64 112.64 0 0 1 112.530286-112.530285 112.64 112.64 0 0 1 112.530286 112.530285 112.64 112.64 0 0 1-112.530286 112.530286M451.803429 450.121143a76.068571 76.068571 0 0 0-75.958858 75.958857 76.068571 76.068571 0 0 0 75.958858 75.958857 76.068571 76.068571 0 0 0 75.958857-75.958857 76.068571 76.068571 0 0 0-75.958857-75.958857m0 188.489143a112.64 112.64 0 0 1-112.530286-112.530286 112.64 112.64 0 0 1 112.530286-112.530286 112.64 112.64 0 0 1 112.530285 112.530286 112.64 112.64 0 0 1-112.530285 112.530286M331.154286 208.054857a9.142857 9.142857 0 0 1-4.096-17.334857l32.694857-16.347429a9.142857 9.142857 0 1 1 8.192 16.347429l-32.694857 16.384a9.069714 9.069714 0 0 1-4.096 0.950857m-65.462857 32.731429a9.142857 9.142857 0 0 1-4.096-17.334857l32.768-16.347429a9.142857 9.142857 0 1 1 8.155428 16.347429l-32.694857 16.384a9.069714 9.069714 0 0 1-4.096 0.950857m-65.389714 32.731428a9.142857 9.142857 0 0 1-4.096-17.334857l32.694857-16.347428a9.142857 9.142857 0 0 1 12.288 4.096 9.142857 9.142857 0 0 1-4.096 12.251428l-32.731429 16.384a8.923429 8.923429 0 0 1-4.059428 0.950857" p-id="2789"></path><path d="M432.932571 289.060571a9.142857 9.142857 0 0 1-9.142857-9.142857v-36.571428a9.142857 9.142857 0 0 1 18.285715 0v36.571428a9.142857 9.142857 0 0 1-9.142858 9.142857m0 73.142858a9.142857 9.142857 0 0 1-9.142857-9.142858v-36.571428a9.142857 9.142857 0 0 1 18.285715 0v36.571428a9.142857 9.142857 0 0 1-9.142858 9.142858m0 73.142857a9.142857 9.142857 0 0 1-9.142857-9.142857v-36.571429a9.142857 9.142857 0 0 1 18.285715 0v36.571429a9.142857 9.142857 0 0 1-9.142858 9.142857M105.581714 475.538286a9.106286 9.106286 0 0 1-8.630857-6.144l-11.922286-34.596572a9.142857 9.142857 0 0 1 17.298286-5.961143l11.885714 34.56a9.142857 9.142857 0 0 1-8.630857 12.141715m23.808 69.156571a9.179429 9.179429 0 0 1-8.667428-6.144l-11.885715-34.596571a9.142857 9.142857 0 1 1 17.298286-5.961143l11.885714 34.596571a9.106286 9.106286 0 0 1-8.630857 12.105143m23.771429 69.156572a9.142857 9.142857 0 0 1-8.630857-6.180572l-11.885715-34.596571a9.106286 9.106286 0 1 1 17.261715-5.924572l11.922285 34.596572a9.142857 9.142857 0 0 1-8.667428 12.105143M325.193143 628.333714a9.033143 9.033143 0 0 1-7.789714-4.388571 9.069714 9.069714 0 0 1 2.998857-12.544l31.195428-19.090286a9.142857 9.142857 0 1 1 9.545143 15.579429l-31.195428 19.090285a9.033143 9.033143 0 0 1-4.754286 1.353143m-62.390857 38.180572a9.142857 9.142857 0 0 1-7.789715-4.388572 9.069714 9.069714 0 0 1 2.998858-12.544l31.195428-19.090285a9.142857 9.142857 0 1 1 9.545143 15.579428l-31.195429 19.090286a9.033143 9.033143 0 0 1-4.754285 1.353143M225.572571 412.525714a9.252571 9.252571 0 0 1-4.534857-1.243428l-31.744-18.212572a9.142857 9.142857 0 0 1 9.142857-15.835428l31.707429 18.176a9.142857 9.142857 0 0 1-4.571429 17.078857m63.451429 36.388571a9.252571 9.252571 0 0 1-4.534857-1.206857l-31.744-18.212571a9.142857 9.142857 0 0 1 9.142857-15.835429l31.707429 18.176a9.142857 9.142857 0 1 1-4.571429 17.078857m63.451429 36.388572a9.398857 9.398857 0 0 1-4.571429-1.206857l-31.707429-18.212572a9.142857 9.142857 0 0 1 9.106286-15.835428l31.707429 18.176a9.142857 9.142857 0 0 1-4.534857 17.078857M498.944 657.188571a9.069714 9.069714 0 0 1-8.411429-5.485714l-14.555428-33.609143a9.142857 9.142857 0 1 1 16.786286-7.277714l14.555428 33.536a9.142857 9.142857 0 0 1-8.411428 12.8m29.147428 67.072a9.069714 9.069714 0 0 1-8.411428-5.485714l-14.518858-33.536a9.142857 9.142857 0 1 1 16.749715-7.314286l14.555428 33.572571a9.142857 9.142857 0 0 1-8.411428 12.8m29.184 67.072a9.142857 9.142857 0 0 1-8.411429-5.485714l-14.555428-33.536a9.216 9.216 0 0 1 4.717714-12.068571 9.216 9.216 0 0 1 12.032 4.754285l14.592 33.536a9.142857 9.142857 0 0 1-8.411429 12.8M294.948571 794.587429a8.594286 8.594286 0 0 1-2.523428-0.365715l-35.108572-10.057143a9.142857 9.142857 0 0 1-6.326857-11.337142 8.96 8.96 0 0 1 11.337143-6.217143l35.145143 10.057143a9.142857 9.142857 0 0 1-2.523429 17.92m70.326858 20.114285a9.947429 9.947429 0 0 1-2.523429-0.365714l-35.108571-10.020571a9.142857 9.142857 0 0 1-6.326858-11.337143 9.033143 9.033143 0 0 1 11.337143-6.253715l35.145143 10.057143a9.142857 9.142857 0 0 1-2.523428 17.92m70.326857 20.114286a8.594286 8.594286 0 0 1-2.523429-0.365714l-35.181714-10.057143a9.142857 9.142857 0 0 1 5.046857-17.554286l35.181714 10.057143a9.142857 9.142857 0 0 1-2.523428 17.92m70.326857 20.114286a9.947429 9.947429 0 0 1-2.523429-0.365715l-35.108571-10.020571a9.142857 9.142857 0 0 1 4.973714-17.590857l35.145143 10.057143a9.142857 9.142857 0 0 1-2.486857 17.92M757.028571 456.045714a9.142857 9.142857 0 0 1-2.523428-17.92l35.181714-10.020571a9.033143 9.033143 0 0 1 11.264 6.290286 9.142857 9.142857 0 0 1-6.217143 11.300571l-35.218285 10.020571a8.594286 8.594286 0 0 1-2.523429 0.365715m-70.326857 20.114285a9.142857 9.142857 0 0 1-2.450286-17.92l35.108572-10.057142a9.142857 9.142857 0 1 1 5.046857 17.554285l-35.145143 10.057143a8.594286 8.594286 0 0 1-2.56 0.365714m-70.290286 20.077715a9.142857 9.142857 0 0 1-2.523428-17.92l35.181714-10.057143a9.142857 9.142857 0 1 1 5.010286 17.554286l-35.181715 10.057142a8.594286 8.594286 0 0 1-2.523428 0.365715m-70.326857 20.077714a9.142857 9.142857 0 0 1-2.523429-17.92l35.218286-10.057143a9.142857 9.142857 0 1 1 4.973714 17.554286l-35.108571 10.093714a8.557714 8.557714 0 0 1-2.56 0.329143M834.121143 570.221714a8.886857 8.886857 0 0 1-4.754286-1.389714 9.106286 9.106286 0 0 1-2.998857-12.580571l19.236571-31.085715a9.106286 9.106286 0 0 1 12.580572-2.925714 9.106286 9.106286 0 0 1 2.962286 12.580571l-19.236572 31.085715a9.142857 9.142857 0 0 1-7.789714 4.315428m-38.473143 62.208a9.142857 9.142857 0 0 1-7.789714-13.970285l19.236571-31.085715a9.142857 9.142857 0 0 1 15.579429 9.618286l-19.273143 31.122286a9.142857 9.142857 0 0 1-7.753143 4.315428m-38.509714 62.171429a9.142857 9.142857 0 0 1-7.789715-13.933714l19.273143-31.085715a9.142857 9.142857 0 1 1 15.542857 9.654857l-19.236571 31.085715a9.179429 9.179429 0 0 1-7.789714 4.278857m-38.509715 62.208a9.106286 9.106286 0 0 1-7.753142-13.933714l19.236571-31.085715a9.142857 9.142857 0 1 1 15.579429 9.618286l-19.273143 31.085714a9.106286 9.106286 0 0 1-7.789715 4.315429m-38.473142 62.208a9.142857 9.142857 0 0 1-7.789715-13.970286l19.273143-31.085714a9.142857 9.142857 0 1 1 15.542857 9.581714l-19.273143 31.122286a9.069714 9.069714 0 0 1-7.753142 4.388571M571.172571 210.541714a9.289143 9.289143 0 0 1-4.717714-1.316571l-31.305143-18.834286a9.142857 9.142857 0 1 1 9.398857-15.689143l31.341715 18.870857a9.069714 9.069714 0 0 1 3.108571 12.544 9.106286 9.106286 0 0 1-7.826286 4.425143m62.646858 37.741715a9.069714 9.069714 0 0 1-4.681143-1.316572l-31.341715-18.870857a9.142857 9.142857 0 0 1 9.435429-15.652571l31.341714 18.834285a9.179429 9.179429 0 0 1-4.754285 17.005715m62.683428 37.705142a9.142857 9.142857 0 0 1-4.717714-1.28l-31.341714-18.870857a9.142857 9.142857 0 0 1 9.435428-15.689143l31.341714 18.870858a9.142857 9.142857 0 0 1-4.717714 16.969142m62.646857 37.741715a9.618286 9.618286 0 0 1-4.717714-1.28l-31.305143-18.870857a9.069714 9.069714 0 0 1-3.108571-12.544 9.142857 9.142857 0 0 1 12.544-3.145143l31.305143 18.870857a9.069714 9.069714 0 0 1 3.108571 12.544 9.069714 9.069714 0 0 1-7.826286 4.425143m62.683429 37.741714a9.216 9.216 0 0 1-4.717714-1.316571l-31.341715-18.834286a9.142857 9.142857 0 1 1 9.435429-15.689143l31.341714 18.870857a9.142857 9.142857 0 0 1-4.717714 16.969143m31.524571 19.017143a9.252571 9.252571 0 0 1-7.789714-14.116572 9.033143 9.033143 0 0 1 12.507429-2.889142l0.219428 0.146285a9.142857 9.142857 0 0 1-4.937143 16.822857" p-id="2790"></path></svg>