<?xml version="1.0" standalone="no"?><!DOCTYPE svg PUBLIC "-//W3C//DTD SVG 1.1//EN" "http://www.w3.org/Graphics/SVG/1.1/DTD/svg11.dtd"><svg t="1591013679278" class="icon" viewBox="0 0 1024 1024" version="1.1" xmlns="http://www.w3.org/2000/svg" p-id="1958" xmlns:xlink="http://www.w3.org/1999/xlink" width="200" height="200"><defs><style type="text/css"></style></defs><path d="M331.808 537.856l2.656-0.192a71.072 71.072 0 0 1 54.848 23.776c12.704 16.128 18.336 36.704 15.68 57.056l-1.6 5.952a102.624 102.624 0 0 1-29.056 51.936 95.904 95.904 0 0 1-59.36 21.952 87.68 87.68 0 0 1-46.592-13.568l-6.432 58.176h-33.92c3.52-46.72 9.984-93.152 19.36-139.04a85.376 85.376 0 0 1 84.416-66.048zM134.304 636.16c0.928 13.696 10.4 25.312 23.616 28.992 9.952 0.032 19.616-3.52 27.232-9.92 9.312-7.36 2.08-27.744 1.76-28.672-1.696-1.728-41.984-43.584-47.968-51.776a81.408 81.408 0 0 1-9.408-21.088v-1.056a63.04 63.04 0 0 1 12.896-43.104 70.4 70.4 0 0 1 54.72-26.656 60.416 60.416 0 0 1 53.024 30.72l-32.192 25.984a38.784 38.784 0 0 0-26.048-21.024 23.68 23.68 0 0 0-4.48-0.448c-14.272 0-17.472 15.616-17.472 15.616 0 17.344 32.192 42.464 32.512 42.72 32.192 31.392 26.912 53.856 26.912 53.856a70.592 70.592 0 0 1-18.72 45.376c-0.096 0-10.56 24.224-59.424 24.224A52.32 52.32 0 0 1 96 656.96l38.304-20.8z m375.808-98.944c3.04-0.064 6.08 0.128 9.12 0.64 30.016 2.88 55.072 24.16 62.784 53.312 0.768 8.928 0.768 17.856 0 26.784v4.48c0 4.384-10.912 71.296-10.912 71.776h-32.384l7.616-64.96a72.416 72.416 0 0 0-13.44-47.296 34.464 34.464 0 0 0-26.368-10.656 55.168 55.168 0 0 0-51.488 46.848c-0.032 0.384-1.632 39.104 30.08 45.984a46.496 46.496 0 0 0 47.84-16.48l-6.944 41.6a73.824 73.824 0 0 1-35.744 9.216 76.736 76.736 0 0 1-52.064-21.28 73.536 73.536 0 0 1-18.368-53.344c0.96-24.992 12.992-48.288 32.768-63.584a89.728 89.728 0 0 1 57.504-23.04z m214.336 75.04l-11.68 81.696h-37.44l24-178.368 40.032-28.384-10.24 92.448 62.048-68.16 6.432 37.12-43.328 47.136 70.816 98.24h-43.616l-57.024-81.728z m-83.392-69.76h35.584l-4.128 32.768h-22.432a17.056 17.056 0 0 0-12.064 10.976l-15.104 107.84h-33.344l12.704-107.264c0.672-12.128 6.144-23.488 15.168-31.616 6.24-6.72 14.56-11.2 23.616-12.704z m161.536-29.44v-0.064l55.904 15.648-33.376-65.696 50.56-61.76-75.712 18.144-37.184-61.472-14.88 76.48-75.488 25.76 55.616 24-37.76 25.504-44.768-19.008c-0.384-0.096-24.64-11.36-24.64-30.464s24.96-25.984 25.184-25.984l74.624-23.2 12.448-72.736c0.064-0.288 6.144-28.832 25.792-28.832 15.808 0 24.096 14.304 31.744 28.064 1.952 3.424 4.032 6.816 6.176 10.112l20.704 34.72 74.112-19.392c4.8-0.896 9.664-1.376 14.56-1.408 7.392 0 16.896 1.28 20.448 8 3.52 6.72 0.096 17.856-10.176 32.384l-52.672 61.664 31.2 60.864c0.096 0.192 9.92 20.704 1.984 33.408a27.296 27.296 0 0 1-24.96 10.112c-3.264 0-6.496-0.224-9.696-0.64l-53.888-17.152-5.856-37.088z m-482.24 150.944a54.72 54.72 0 0 0 49.92-47.936 42.624 42.624 0 0 0-41.728-43.36 55.456 55.456 0 0 0-50.752 48.48 42.72 42.72 0 0 0 42.56 42.816zM64 64v896h896V64H64z m0-64h896a64 64 0 0 1 64 64v896a64 64 0 0 1-64 64H64a64 64 0 0 1-64-64V64a64 64 0 0 1 64-64z" p-id="1959"></path></svg>