<?xml version="1.0" standalone="no"?><!DOCTYPE svg PUBLIC "-//W3C//DTD SVG 1.1//EN" "http://www.w3.org/Graphics/SVG/1.1/DTD/svg11.dtd"><svg t="1590286578880" class="icon" viewBox="0 0 1024 1024" version="1.1" xmlns="http://www.w3.org/2000/svg" p-id="9642" xmlns:xlink="http://www.w3.org/1999/xlink" width="200" height="200"><defs><style type="text/css"></style></defs><path d="M655.36 336.64a42.666667 42.666667 0 0 1 30.293333 12.373333 42.666667 42.666667 0 0 1 0 60.586667 42.666667 42.666667 0 0 1-30.293333 12.373333 42.666667 42.666667 0 0 1-42.666667-42.666666 42.666667 42.666667 0 0 1 12.373334-30.293334 42.666667 42.666667 0 0 1 30.293333-12.373333m0-85.333333a128 128 0 0 0-90.453333 37.546666 128 128 0 0 0 0 180.906667 128 128 0 0 0 180.906666 0 128 128 0 0 0-90.453333-218.453333z" p-id="9643"></path><path d="M263.253333 901.973333a85.333333 85.333333 0 0 1-60.586666-24.746666L157.44 832a85.333333 85.333333 0 0 1 0-120.746667l245.76-245.76A266.666667 266.666667 0 0 1 682.666667 113.92a270.08 270.08 0 0 1 197.546666 121.6 266.666667 266.666667 0 0 1-311.04 395.946667l-245.76 245.76a85.333333 85.333333 0 0 1-60.16 24.746666z m391.68-725.333333A202.666667 202.666667 0 0 0 469.333333 460.8a31.573333 31.573333 0 0 1-6.826666 35.413333l-260.266667 260.266667a22.186667 22.186667 0 0 0-5.973333 14.933333 22.186667 22.186667 0 0 0 5.973333 15.36l45.653333 45.226667a21.76 21.76 0 0 0 30.293334 0l260.266666-260.266667a31.573333 31.573333 0 0 1 35.413334-6.826666 203.946667 203.946667 0 0 0 252.16-75.946667 201.386667 201.386667 0 0 0 0-218.453333 203.946667 203.946667 0 0 0-150.186667-92.586667 178.773333 178.773333 0 0 0-20.906667-1.28z" p-id="9644"></path><path d="M338.346667 577.28a31.573333 31.573333 0 0 1-22.613334-9.386667l-90.453333-90.453333a32 32 0 0 1 45.226667-45.226667l90.453333 90.453334a31.573333 31.573333 0 0 1 0 45.226666 30.293333 30.293333 0 0 1-22.613333 9.386667zM247.893333 667.733333a31.573333 31.573333 0 0 1-22.613333-9.386666l-90.453333-90.453334a32 32 0 0 1 45.226666-45.226666l90.453334 90.453333a31.573333 31.573333 0 0 1 0 45.226667 31.146667 31.146667 0 0 1-22.613334 9.386666z" p-id="9645"></path></svg>