<?xml version="1.0" standalone="no"?><!DOCTYPE svg PUBLIC "-//W3C//DTD SVG 1.1//EN" "http://www.w3.org/Graphics/SVG/1.1/DTD/svg11.dtd"><svg t="1590286300031" class="icon" viewBox="0 0 1024 1024" version="1.1" xmlns="http://www.w3.org/2000/svg" p-id="5896" xmlns:xlink="http://www.w3.org/1999/xlink" width="200" height="200"><defs><style type="text/css"></style></defs><path d="M739.555556 284.444444c0-156.444444-128-284.444444-284.444445-284.444444h-170.666667C128 0 0 128 0 284.444444v170.666667c0 156.444444 128 284.444444 284.444444 284.444445 0 156.444444 128 284.444444 284.444445 284.444444h170.666667c156.444444 0 284.444444-128 284.444444-284.444444v-170.666667c0-156.444444-128-284.444444-284.444444-284.444445zM113.777778 455.111111v-170.666667c0-93.866667 76.8-170.666667 170.666666-170.666666h170.666667c93.866667 0 170.666667 85.333333 170.666667 170.666666h-56.888889c-156.444444 0-284.444444 128-284.444445 284.444445v56.888889c-85.333333 0-170.666667-76.8-170.666666-170.666667z m512-56.888889v56.888889c0 93.866667-76.8 170.666667-170.666667 170.666667h-56.888889v-56.888889c0-93.866667 76.8-170.666667 170.666667-170.666667h56.888889z m284.444444 341.333334c0 93.866667-76.8 170.666667-170.666666 170.666666h-170.666667c-93.866667 0-170.666667-85.333333-170.666667-170.666666h56.888889c156.444444 0 284.444444-128 284.444445-284.444445v-56.888889c85.333333 0 170.666667 76.8 170.666666 170.666667v170.666667z" p-id="5897"></path></svg>