<?xml version="1.0" standalone="no"?><!DOCTYPE svg PUBLIC "-//W3C//DTD SVG 1.1//EN" "http://www.w3.org/Graphics/SVG/1.1/DTD/svg11.dtd"><svg t="1591007738175" class="icon" viewBox="0 0 1024 1024" version="1.1" xmlns="http://www.w3.org/2000/svg" p-id="7477" xmlns:xlink="http://www.w3.org/1999/xlink" width="200" height="200"><defs><style type="text/css"></style></defs><path d="M806.875136 910.659584c-42.983424 0.012288-85.991424 0.77824-128.946176-0.372736-16.982016-0.45056-26.99264 4.927488-36.39296 19.386368-45.780992 70.426624-129.134592 94.814208-199.745536 55.668736-24.088576-13.361152-44.21632-35.7376-62.390272-57.18016-10.46528-12.353536-19.279872-17.94048-35.217408-17.813504-84.606976 0.684032-169.222144 0.237568-253.833216 0.38912-15.540224 0.028672-30.5152-0.520192-38.526976-16.920576-7.385088-15.118336-0.495616-27.42272 7.766016-39.809024 26.116096-39.15776 52.432896-78.209024 77.389824-118.099968 6.074368-9.711616 9.87136-22.413312 10.227712-33.878016 2.285568-73.60512-1.92512-147.808256 5.885952-220.758016 15.253504-142.471168 84.119552-252.985344 212.783104-322.27328 4.79232-2.584576 9.633792-5.562368 14.823424-6.836224 15.986688-3.907584 21.467136-13.426688 24.203264-29.937664 8.925184-53.84192 54.460416-96.251904 101.224448-97.538048 53.362688-1.466368 102.326272 41.828352 111.181824 100.442112 1.990656 13.185024 7.847936 17.915904 18.731008 22.85568 157.5936 71.49568 230.735872 199.696384 240.92672 367.120384 3.710976 61.014016-1.605632 122.544128-1.150976 183.824384 0.090112 12.521472 4.993024 26.730496 12.079104 37.167104 27.590656 40.620032 57.81504 79.458304 85.045248 120.307712 6.549504 9.826304 9.265152 25.686016 6.721536 37.224448-3.334144 15.142912-19.12832 17.129472-33.579008 17.08032-46.403584-0.155648-92.803072-0.057344-139.206656-0.049152zM132.85376 848.818176h763.756544c-22.769664-31.973376-44.457984-59.990016-63.184896-89.858048-8.138752-12.988416-13.713408-29.638656-14.35648-44.883968-1.871872-44.294144-0.442368-88.71936-0.729088-133.091328-0.233472-36.122624 2.158592-72.654848-2.33472-108.285952-8.27392-65.536-33.66912-125.308928-76.57472-175.960064-76.1856-89.939968-171.900928-132.186112-289.513472-104.419328-129.253376 30.5152-230.346752 154.353664-240.431104 292.261888-4.964352 67.91168-6.029312 136.278016-5.013504 204.382208 0.548864 36.72064-6.987776 67.887104-29.925376 96.64512-15.065088 18.886656-26.836992 40.40704-41.693184 63.209472z m446.205952 63.83616h-136.51968c38.088704 40.165376 96.677888 40.431616 136.51968 0zM464.384 127.074304c16.77312-1.118208 31.535104-2.506752 46.329856-2.99008 15.13472-0.495616 30.302208-0.106496 45.50656-0.106496-5.832704-22.761472-24.539136-38.006784-46.03904-37.70368-21.413888 0.303104-39.440384 15.699968-45.797376 40.800256z" p-id="7478"></path><path d="M556.220416 123.977728c-15.204352 0-30.37184-0.38912-45.50656 0.106496-14.794752 0.483328-29.556736 1.871872-46.329856 2.99008" p-id="7479"></path><path d="M743.780352 455.254016c-0.540672 19.050496-8.060928 30.109696-23.863296 34.639872-16.986112 4.870144-29.917184-1.875968-37.789696-16.54784-6.733824-12.546048-10.739712-26.525696-16.83456-39.456768-17.170432-36.429824-42.491904-64.53248-81.027072-79.618048-20.93056-8.196096-29.065216-26.284032-21.614592-44.146688 7.139328-17.117184 26.591232-24.63744 46.723072-16.523264 62.898176 25.35424 102.047744 73.191424 125.755392 135.139328 3.629056 9.490432 6.332416 19.345408 8.650752 26.513408z" p-id="7480"></path></svg>