<?xml version="1.0" standalone="no"?><!DOCTYPE svg PUBLIC "-//W3C//DTD SVG 1.1//EN" "http://www.w3.org/Graphics/SVG/1.1/DTD/svg11.dtd"><svg t="1591086469333" class="icon" viewBox="0 0 1024 1024" version="1.1" xmlns="http://www.w3.org/2000/svg" p-id="3526" xmlns:xlink="http://www.w3.org/1999/xlink" width="200" height="200"><defs><style type="text/css"></style></defs><path d="M518.827 588.8c-131.414 0-238.934-107.52-238.934-238.933s107.52-238.934 238.934-238.934S757.76 218.453 757.76 349.867 650.24 588.8 518.827 588.8z m0-409.6c-93.867 0-170.667 76.8-170.667 170.667s76.8 170.666 170.667 170.666 170.666-76.8 170.666-170.666S612.693 179.2 518.827 179.2z" p-id="3527"></path><path d="M112.64 913.067h-6.827c-18.773-3.414-30.72-22.187-25.6-40.96 10.24-42.667 25.6-85.334 47.787-122.88 80.213-138.24 225.28-221.867 384-221.867 160.427 0 303.787 83.627 384 221.867 18.773 34.133 32.427 68.266 44.373 104.106 5.12 18.774-5.12 37.547-22.186 42.667-18.774 5.12-37.547-5.12-42.667-22.187-10.24-32.426-22.187-61.44-37.547-90.453C769.707 665.6 648.533 595.627 512 595.627S254.293 665.6 186.027 783.36c-18.774 30.72-32.427 66.56-40.96 102.4-1.707 17.067-17.067 27.307-32.427 27.307z" p-id="3528"></path><path d="M911.36 537.6H774.827c-18.774 0-34.134-15.36-34.134-34.133s15.36-34.134 34.134-34.134H911.36c18.773 0 34.133 15.36 34.133 34.134S930.133 537.6 911.36 537.6z m0-102.4h-102.4c-18.773 0-34.133-15.36-34.133-34.133s15.36-34.134 34.133-34.134h102.4c18.773 0 34.133 15.36 34.133 34.134S930.133 435.2 911.36 435.2z m0 204.8h-68.267c-18.773 0-34.133-15.36-34.133-34.133s15.36-34.134 34.133-34.134h68.267c18.773 0 34.133 15.36 34.133 34.134S930.133 640 911.36 640z" p-id="3529"></path></svg>