<?xml version="1.0" standalone="no"?><!DOCTYPE svg PUBLIC "-//W3C//DTD SVG 1.1//EN" "http://www.w3.org/Graphics/SVG/1.1/DTD/svg11.dtd"><svg t="1591176336356" class="icon" viewBox="0 0 1024 1024" version="1.1" xmlns="http://www.w3.org/2000/svg" p-id="5695" xmlns:xlink="http://www.w3.org/1999/xlink" width="200" height="200"><defs><style type="text/css"></style></defs><path d="M901.9648 51.1488H122.04544c-31.34976 0-70.89664 39.54176-70.89664 70.912v779.88352c0 31.35488 39.54688 70.912 70.89664 70.912h779.90912c31.34976 0 70.89664-39.54688 70.89664-70.912V122.05568c0-31.36-39.54688-70.912-70.89664-70.912z m0 850.7904H122.04544V334.7456h779.90912v567.1936z m0-638.09024H122.04544v-141.824h779.90912v141.824zM313.48736 228.4032h170.1632c15.67232 0 28.3648-19.7888 28.3648-35.44576s-19.78368-35.45088-35.46112-35.45088H299.31008c-15.67744 0-35.456 19.7632-35.456 35.45088s33.95584 35.44576 49.63328 35.44576z m233.984 531.73248h212.69504c15.6672 0 35.45088-5.58592 35.45088-21.26336V512c0-15.6672-19.78368-35.44064-35.45088-35.44064h-212.70016c-15.67744 0-35.45088 19.77344-35.45088 35.44064v226.88256c0 15.67744 19.77344 21.26336 35.45088 21.26336z m35.44064-212.69504h141.824v141.824h-141.824v-141.824z m-319.0528 0h177.24416c15.67232 0 35.456-19.76832 35.456-35.45088s-19.78368-35.44064-35.456-35.44064H263.85408c-15.67744 0-35.456 19.77344-35.456 35.44064s19.77856 35.45088 35.456 35.45088zM256.73728 653.824h170.18368c15.68256 0 49.63328-19.7888 49.63328-35.46112s-19.78368-35.44576-35.456-35.44576H263.85408c-15.67744 0-35.456 19.78368-35.456 35.44576s12.69248 35.46112 28.3648 35.46112h-0.0256z m7.0912 106.33728h177.27488c15.67232 0 35.456-19.76832 35.456-35.44576s-19.78368-35.44064-35.456-35.44064H263.85408c-15.67744 0-35.456 19.77856-35.456 35.44064s19.77856 35.44576 35.456 35.44576h-0.0256z m-35.42528-602.624H157.50144v70.87616h70.89664V157.50656z" p-id="5696"></path></svg>