<?xml version="1.0" standalone="no"?><!DOCTYPE svg PUBLIC "-//W3C//DTD SVG 1.1//EN" "http://www.w3.org/Graphics/SVG/1.1/DTD/svg11.dtd"><svg t="1590286549790" class="icon" viewBox="0 0 1024 1024" version="1.1" xmlns="http://www.w3.org/2000/svg" p-id="8866" xmlns:xlink="http://www.w3.org/1999/xlink" width="200" height="200"><defs><style type="text/css"></style></defs><path d="M921.599996 983.03999a40.96 40.96 0 0 1-40.96-40.959999V303.513997L659.045999 81.919999H143.360004a40.96 40.96 0 0 1 0-81.919999h549.273994L962.559996 269.925997V942.079991a40.96 40.96 0 0 1-40.96 40.959999z" p-id="8867"></path><path d="M716.799998 1023.99999H184.320003A122.879999 122.879999 0 0 1 61.440004 901.119991V245.759998a122.879999 122.879999 0 0 1 122.879999-122.879999h426.393996L839.679997 351.845997V860.159992a40.96 40.96 0 0 1 0 12.287999v25.395A122.879999 122.879999 0 0 1 716.799998 1023.99999zM184.320003 204.799998a40.96 40.96 0 0 0-40.959999 40.96v655.359993a40.96 40.96 0 0 0 40.959999 40.96H716.799998a40.96 40.96 0 0 0 40.96-40.96l-2.867-38.092999a40.96 40.96 0 0 1 2.867-18.022V385.433996L577.125999 204.799998z" p-id="8868"></path><path d="M798.719997 409.599996h-204.799998a40.96 40.96 0 0 1-40.959999-40.96v-204.799998h81.919999v163.839999h163.839998zM634.879999 757.759993c-137.215999 0-181.861998-172.031998-183.499998-179.404999A160.562998 160.562998 0 0 0 307.200002 471.039995a160.562998 160.562998 0 0 0-144.588999 108.953999 20.48 20.48 0 0 1-38.911999-13.108A200.293998 200.293998 0 0 1 307.200002 430.079996a200.293998 200.293998 0 0 1 183.090998 136.805998c0 2.868 40.96 149.913999 144.588999 149.913999s143.769999-147.045999 144.179998-148.274999a20.48 20.48 0 0 1 40.96 9.83c-3.278 7.373-47.924 179.404998-185.139998 179.404999zM102.113004 614.604994l40.96-0.205 0.205 40.96-40.96 0.205z" p-id="8869"></path><path d="M187.597003 655.359994V614.399994h88.063999v40.96z m132.299999 0V614.399994h88.064999v40.96z m132.300999 0V614.399994h88.063999v40.96z m132.300998 0V614.399994h88.063999v40.96z m132.013999-43.336l40.96-0.204 0.205 40.96-40.96 0.204z" p-id="8870"></path></svg>