<?xml version="1.0" standalone="no"?><!DOCTYPE svg PUBLIC "-//W3C//DTD SVG 1.1//EN" "http://www.w3.org/Graphics/SVG/1.1/DTD/svg11.dtd"><svg t="1591176347309" class="icon" viewBox="0 0 1024 1024" version="1.1" xmlns="http://www.w3.org/2000/svg" p-id="6435" xmlns:xlink="http://www.w3.org/1999/xlink" width="200" height="200"><defs><style type="text/css"></style></defs><path d="M891.424 1.152h-800A73.344 73.344 0 0 0 18.272 74.24v802.976A73.344 73.344 0 0 0 91.424 950.4h234.4l-69.376-73.152H91.552l-0.128-0.096V74.4l0.128-0.128h799.776l0.096 0.128v293.12l73.152 77.152V74.272A73.344 73.344 0 0 0 891.424 1.152z" fill="#757575" p-id="6436"></path><path d="M794.4 398.624c-7.072 0-14.176 1.376-21.024 4.128A58.56 58.56 0 0 0 736.64 457.6v32.448H690.56a36.544 36.544 0 1 0 0 73.152h82.72c20.224 0 36.576-16.32 36.576-36.576v-31.2l116.352 122.752-116.352 122.752v-31.328c0-20.224-16.32-36.576-36.576-36.576h-196.672v-32.576A58.56 58.56 0 0 0 539.84 585.6a56.448 56.448 0 0 0-62.496 13.824L324.8 760.352a59.2 59.2 0 0 0 0 81.376l152.448 160.8a56.896 56.896 0 0 0 62.528 13.824 58.56 58.56 0 0 0 36.672-54.88v-32.32h46.176a36.544 36.544 0 1 0 0-73.152h-82.752c-20.224 0-36.544 16.32-36.544 36.576v31.2l-116.256-122.752 116.352-122.752v31.328c0 20.224 16.32 36.576 36.576 36.576h196.672v32.576c0 24.448 14.4 45.92 36.704 54.848a56.448 56.448 0 0 0 62.496-13.824l152.48-160.8a59.2 59.2 0 0 0 0-81.376l-152.48-161.024a57.152 57.152 0 0 0-41.472-17.92zM775.2 192H207.648a36.544 36.544 0 1 0 0 73.152h567.68A36.544 36.544 0 1 0 775.2 192z m-320 146.272H207.648a36.544 36.544 0 1 0 0 73.152h247.552a36.544 36.544 0 1 0 0-73.152z" fill="#898989" p-id="6437"></path></svg>