<?xml version="1.0" standalone="no"?><!DOCTYPE svg PUBLIC "-//W3C//DTD SVG 1.1//EN" "http://www.w3.org/Graphics/SVG/1.1/DTD/svg11.dtd"><svg t="1592906842724" class="icon" viewBox="0 0 1024 1024" version="1.1" xmlns="http://www.w3.org/2000/svg" p-id="1783" xmlns:xlink="http://www.w3.org/1999/xlink" width="200" height="200"><defs><style type="text/css"></style></defs><path d="M257.857085 196.191458h504.484881l4.946441 0.347118c12.322712-1.162847 23.291661-7.289492 32.091118-16.088949a59.183729 59.183729 0 0 0 14.821967-39.120271V112.917695c0-15.27322-5.710102-29.366237-14.821967-38.99878a49.568542 49.568542 0 0 0-37.037559-16.453423H257.857085a49.464407 49.464407 0 0 0-36.794577 16.453423c-9.354847 9.632542-14.839322 23.725559-14.839322 38.99878v28.411661c0 15.27322 5.484475 28.793492 14.821967 39.120271 8.799458 8.816814 19.230373 14.926102 31.865491 16.088949l4.946441-0.347118z m24.732203 266.864813c21.434576 0 38.99878 18.796475 38.99878 41.341831 0 22.562712-17.564203 41.341831-38.99878 41.34183-21.434576 0-38.460746-18.779119-38.460746-41.34183s17.147661-41.341831 38.460746-41.341831z m0-188.763118c21.434576 0 38.99878 18.449356 38.99878 41.133559 0 23.256949-17.564203 41.688949-38.99878 41.688949-21.434576 0-38.460746-18.449356-38.460746-41.706305 0-22.666847 17.147661-41.098847 38.460746-41.098848z m0-188.745763c21.434576 0 38.99878 18.796475 38.99878 41.463322 0 23.135458-17.564203 41.341831-38.99878 41.34183-21.434576 0-38.460746-18.206373-38.460746-41.34183 0-22.666847 17.147661-41.480678 38.460746-41.480678z m266.465627 538.433085v112.761491a124.129627 124.129627 0 0 1 54.393492 35.232542 136.417627 136.417627 0 0 1 32.420881 56.615051H974.188475c21.41722 0 38.669017 17.841898 38.669017 41.341831 0 22.666847-17.251797 41.116203-38.669017 41.116203H636.858576c-6.369627 23.135458-17.581559 44.032-33.514305 60.138305-23.63878 26.06861-56.580339 41.688949-93.409627 41.688949-36.273898 0-69.770847-15.498847-93.392271-41.688949-15.394712-16.210441-26.919051-37.002847-33.514305-60.138305H45.889085c-21.41722 0-38.460746-18.570847-38.460746-41.116203 0-23.482576 17.043525-41.341831 38.460746-41.341831h338.336542a144.522847 144.522847 0 0 1 32.420881-56.615051c15.064949-16.436068 33.739932-28.776136 54.619119-35.232542v-112.761491H257.857085c-26.919051 0-51.651254-12.097085-69.441085-31.136543v-0.590101c-17.807186-18.206373-28.793492-44.986576-28.793492-73.762712v-28.429017c0-28.75878 10.986305-55.191864 28.897628-74.231322 1.978576-2.117424 3.644746-3.870373 6.039864-6.213424-2.412475-1.405831-4.061288-3.523254-6.039864-5.293559a108.960542 108.960542 0 0 1-28.897628-74.231322v-28.776136c0-28.776136 10.986305-55.191864 28.897628-73.64122 1.978576-2.707525 3.644746-4.338983 6.039864-5.883661-2.412475-2.343051-4.061288-4.460475-6.039864-6.109289a109.047322 109.047322 0 0 1-28.897628-74.352813V112.917695c0-28.776136 10.986305-55.452203 28.897628-74.352814C206.327322 19.421288 230.504136 7.428339 257.857085 7.428339h504.484881c27.248814 0 51.651254 11.975593 69.441085 31.136542 17.581559 18.779119 28.914983 45.559322 28.914983 74.352814v28.411661a109.863051 109.863051 0 0 1-28.914983 74.248678c-1.648814 1.752949-4.061288 3.870373-6.039865 6.109288 1.978576 1.527322 3.853017 3.15878 6.039865 5.866305a107.919186 107.919186 0 0 1 28.914983 73.64122v28.776136a109.863051 109.863051 0 0 1-28.914983 74.231322 44.656814 44.656814 0 0 1-6.039865 5.293559c1.978576 2.343051 3.853017 4.113356 6.039865 6.23078a110.088678 110.088678 0 0 1 28.914983 74.231322v28.429017c0 28.75878-11.333424 55.434847-28.914983 73.64122-17.789831 19.612203-42.296407 31.709288-69.423729 31.709289h-213.304407v0.242983z m218.337627-377.873356l-4.94644 0.242983H257.857085l-4.946441-0.242983c-12.635119 0.833085-23.08339 7.046508-31.865491 16.106305-9.337492 9.979661-14.821966 23.829695-14.821967 38.981423v28.776136c0 15.047593 5.484475 29.14061 14.821967 38.99878v0.590101c8.799458 8.452339 19.230373 14.683119 31.865491 15.498848l4.946441-0.225627h504.484881l4.946441 0.225627c12.322712-0.815729 23.291661-7.046508 32.091118-16.088949 9.025085-9.979661 14.821966-24.072678 14.821967-38.99878v-28.776136c0-15.27322-5.710102-29.001763-14.821967-38.981423v-0.590102c-8.677966-8.469695-19.681627-14.683119-31.986983-15.516203z m0 188.763118l-4.94644 0.347119H257.857085l-4.946441-0.347119c-12.635119 1.162847-23.08339 7.046508-31.865491 16.088949a57.534915 57.534915 0 0 0-14.821967 38.99878v28.429017c0 15.27322 5.484475 29.001763 14.821967 38.981424a49.464407 49.464407 0 0 0 36.811932 16.453424h504.484881c14.509559 0 27.248814-6.109288 37.037559-16.453424a58.211797 58.211797 0 0 0 14.821967-38.99878V489.957966c0-15.27322-5.710102-28.776136-14.821967-38.99878-8.677966-9.025085-19.681627-14.926102-31.986983-16.088949zM570.489492 806.512814c-15.377356-16.453424-36.273898-26.780203-60.433356-26.780204-23.621424 0-45.056 10.32678-60.433356 26.780204a95.527051 95.527051 0 0 0-25.270238 64.824406c0 25.617356 9.892881 48.388339 25.270238 64.841763 15.377356 16.453424 36.794576 26.658712 60.433356 26.658712 24.176814 0 45.056-10.205288 60.433356-26.658712 15.932746-16.436068 25.270237-39.345898 25.270237-64.841763 0-25.478508-9.337492-48.04122-25.270237-64.824406z" fill="#979797" p-id="1784"></path></svg>