<?xml version="1.0" standalone="no"?><!DOCTYPE svg PUBLIC "-//W3C//DTD SVG 1.1//EN" "http://www.w3.org/Graphics/SVG/1.1/DTD/svg11.dtd"><svg t="1589364592250" class="icon" viewBox="0 0 1024 1024" version="1.1" xmlns="http://www.w3.org/2000/svg" p-id="7607" xmlns:xlink="http://www.w3.org/1999/xlink" width="200" height="200"><defs><style type="text/css"></style></defs><path d="M839.997098 675.808839a164.282972 164.282972 0 0 0-129.867738 63.653963L427.184934 597.933704a217.925231 217.925231 0 0 0-7.053701-140.448289l294.719556-186.183577a164.169203 164.169203 0 0 0 125.146309 57.794841 164.624281 164.624281 0 0 0 164.396742-164.396742 164.624281 164.624281 0 0 0-164.396742-164.453626 164.624281 164.624281 0 0 0-160.813007 198.98263L377.297064 389.963293A218.437193 218.437193 0 0 0 292.425113 333.419915a43.118592 43.118592 0 0 0 0.455078-2.161618l18.487522-111.095791a111.152676 111.152676 0 1 0-78.899059-13.197247L213.924247 318.06105a34.585889 34.585889 0 0 0-0.341308 2.275387A218.039 218.039 0 0 0 0.037828 537.977245a217.982116 217.982116 0 0 0 217.754577 217.754577 217.470154 217.470154 0 0 0 173.498292-86.294068l286.528162 143.349408a164.624281 164.624281 0 0 0 162.121354 191.872045 164.624281 164.624281 0 0 0 164.453627-164.510511 164.624281 164.624281 0 0 0-164.396742-164.396742z m0-595.58266a84.416874 84.416874 0 1 1-0.056885 168.947516 84.416874 84.416874 0 0 1 0-168.947516z m-551.098835 0a31.115923 31.115923 0 1 1 0 62.288731 31.115923 31.115923 0 0 1 0-62.231846z m-71.105858 595.58266a137.774709 137.774709 0 1 1 0-275.606303 137.774709 137.774709 0 0 1 0 275.606303z m622.204693 248.8705a84.416874 84.416874 0 1 1 0-168.890632 84.416874 84.416874 0 0 1 0 168.890632z" p-id="7608"></path></svg>