<?xml version="1.0" standalone="no"?><!DOCTYPE svg PUBLIC "-//W3C//DTD SVG 1.1//EN" "http://www.w3.org/Graphics/SVG/1.1/DTD/svg11.dtd"><svg t="1591174926839" class="icon" viewBox="0 0 1057 1024" version="1.1" xmlns="http://www.w3.org/2000/svg" p-id="4785" xmlns:xlink="http://www.w3.org/1999/xlink" width="206.4453125" height="200"><defs><style type="text/css"></style></defs><path d="M214.711659 753.135484a72.670968 72.670968 0 0 1 51.530323 21.140645H264.260046a73.331613 73.331613 0 0 1 0 103.72129 72.670968 72.670968 0 0 1-51.530322 21.140646 73.992258 73.992258 0 0 1-52.190968-21.140646 73.992258 73.992258 0 0 1 0-103.72129 73.992258 73.992258 0 0 1 52.190968-21.140645zM126.185208 0h804.665806a127.504516 127.504516 0 0 1 89.187097 36.996129A127.504516 127.504516 0 0 1 1057.03424 126.183226v142.699355a126.843871 126.843871 0 0 1-33.692903 85.883871A126.183226 126.183226 0 0 1 1057.03424 441.310968v142.038709a128.165161 128.165161 0 0 1-33.692903 85.883871 124.861935 124.861935 0 0 1 33.692903 85.223226v143.36a126.843871 126.843871 0 0 1-36.996129 88.526452 126.183226 126.183226 0 0 1-89.187097 36.335484H126.185208a126.843871 126.843871 0 0 1-89.187097-36.335484A124.861935 124.861935 0 0 1 0.001982 897.816774v-143.36a124.861935 124.861935 0 0 1 33.692903-85.223226A128.165161 128.165161 0 0 1 0.001982 583.349677V441.310968a126.183226 126.183226 0 0 1 33.692903-86.544516A126.183226 126.183226 0 0 1 0.001982 268.882581V126.183226A126.183226 126.183226 0 0 1 36.337466 36.996129 128.165161 128.165161 0 0 1 126.185208 0z m804.665806 81.259355H126.185208a46.905806 46.905806 0 0 0-31.710968 12.552258 46.905806 46.905806 0 0 0-13.212903 31.710968v143.36a44.923871 44.923871 0 0 0 12.552258 31.050322 43.602581 43.602581 0 0 0 31.050322 13.212903H931.511659a46.245161 46.245161 0 0 0 30.389678-11.891612 44.263226 44.263226 0 0 0 13.212903-31.710968V126.183226a43.602581 43.602581 0 0 0-12.552258-31.050323 45.584516 45.584516 0 0 0-31.710968-13.212903zM931.511659 396.387097H124.863917a46.905806 46.905806 0 0 0-30.389677 12.552258 45.584516 45.584516 0 0 0-13.212903 31.710968v142.699354a44.923871 44.923871 0 0 0 12.552258 31.050323 42.28129 42.28129 0 0 0 31.050322 13.212903H931.511659a44.923871 44.923871 0 0 0 30.389678-12.552258 44.923871 44.923871 0 0 0 13.212903-31.710968V441.310968a45.584516 45.584516 0 0 0-12.552258-31.710968 47.566452 47.566452 0 0 0-31.050323-13.212903z m0 314.467097H124.863917a45.584516 45.584516 0 0 0-30.389677 12.552258 46.245161 46.245161 0 0 0-13.212903 31.710967v143.36a44.923871 44.923871 0 0 0 12.552258 31.050323 45.584516 45.584516 0 0 0 31.710968 13.212903h805.326451a46.245161 46.245161 0 0 0 31.710968-12.552258 44.263226 44.263226 0 0 0 13.212903-31.710968v-144.020645a46.245161 46.245161 0 0 0-12.552258-31.050322 46.905806 46.905806 0 0 0-31.050322-13.212904zM214.711659 124.20129a71.349677 71.349677 0 0 1 49.548387 21.801291 73.992258 73.992258 0 0 1 23.783226 52.190967 73.331613 73.331613 0 0 1-23.783226 51.530323 71.349677 71.349677 0 0 1-51.530322 21.80129 72.670968 72.670968 0 0 1-52.190968-21.80129 73.331613 73.331613 0 0 1-19.819355-51.530323 73.992258 73.992258 0 0 1 21.140645-51.530322 72.670968 72.670968 0 0 1 52.190968-21.801291z m17.176775 56.154839a21.80129 21.80129 0 0 0-17.176775-7.267097 24.443871 24.443871 0 0 0-16.516129 7.267097 25.765161 25.765161 0 0 0-7.927742 17.837419 24.443871 24.443871 0 0 0 7.927742 17.176775 23.783226 23.783226 0 0 0 17.83742 7.267096 20.48 20.48 0 0 0 17.176774-7.267096 23.122581 23.122581 0 0 0 5.945806-17.176775 23.783226 23.783226 0 0 0-7.267096-17.176774z m-17.176775 258.312258A75.313548 75.313548 0 0 1 264.260046 462.451613a73.331613 73.331613 0 0 1 21.801291 52.190968 74.652903 74.652903 0 0 1-21.801291 49.548387 72.670968 72.670968 0 0 1-51.530322 21.140645 73.992258 73.992258 0 0 1-52.190968-21.140645 73.992258 73.992258 0 0 1-21.140645-52.190968A73.331613 73.331613 0 0 1 162.520692 462.451613a76.634839 76.634839 0 0 1 52.190967-21.140645z m17.176775 55.494194a23.783226 23.783226 0 0 0-17.176775-7.267097 27.086452 27.086452 0 0 0-16.516129 7.267097 24.443871 24.443871 0 0 0-7.267096 17.176774A23.783226 23.783226 0 0 0 198.19553 528.516129a25.765161 25.765161 0 0 0 17.83742 6.606452 22.461935 22.461935 0 0 0 15.855484-6.606452 21.80129 21.80129 0 0 0 7.267096-17.176774 23.122581 23.122581 0 0 0-7.267096-17.176774z m0 315.127742a21.80129 21.80129 0 0 0-17.176775-7.267097 25.104516 25.104516 0 0 0-17.837419 7.267097H198.19553a23.783226 23.783226 0 0 0-7.267096 17.176774 24.443871 24.443871 0 0 0 7.267096 17.176774 24.443871 24.443871 0 0 0 17.83742 7.267097 21.80129 21.80129 0 0 0 17.176774-7.267097 23.122581 23.122581 0 0 0 7.267097-17.176774 21.80129 21.80129 0 0 0-7.267097-17.176774z" fill="#898989" p-id="4786"></path></svg>