<?xml version="1.0" standalone="no"?><!DOCTYPE svg PUBLIC "-//W3C//DTD SVG 1.1//EN" "http://www.w3.org/Graphics/SVG/1.1/DTD/svg11.dtd"><svg t="1591178154707" class="icon" viewBox="0 0 1024 1024" version="1.1" xmlns="http://www.w3.org/2000/svg" p-id="8646" xmlns:xlink="http://www.w3.org/1999/xlink" width="200" height="200"><defs><style type="text/css"></style></defs><path d="M938.666667 554.666667h-341.333334a128 128 0 0 1-128-128V85.333333h42.666667a426.666667 426.666667 0 0 1 426.666667 426.666667z m-384-381.44V426.666667a42.666667 42.666667 0 0 0 42.666666 42.666666h253.44A341.333333 341.333333 0 0 0 554.666667 173.226667z" p-id="8647"></path><path d="M512 938.666667A426.666667 426.666667 0 0 1 369.92 110.08l28.16 80.64a341.333333 341.333333 0 1 0 435.2 435.2l80.64 28.16A426.666667 426.666667 0 0 1 512 938.666667z" p-id="8648"></path></svg>