<?xml version="1.0" standalone="no"?><!DOCTYPE svg PUBLIC "-//W3C//DTD SVG 1.1//EN" "http://www.w3.org/Graphics/SVG/1.1/DTD/svg11.dtd"><svg t="1590286411390" class="icon" viewBox="0 0 1024 1024" version="1.1" xmlns="http://www.w3.org/2000/svg" p-id="7421" xmlns:xlink="http://www.w3.org/1999/xlink" width="200" height="200"><defs><style type="text/css"></style></defs><path d="M870.4 0H153.6C68.267 0 0 68.267 0 157.867v704C0 947.2 85.333 1024 170.667 1024l170.666-85.333L512 1024l170.667-85.333L853.333 1024C938.667 1024 1024 947.2 1024 861.867v-704C1024 68.267 955.733 0 870.4 0z m68.267 861.867c0 29.866-34.134 64-68.267 72.533l-187.733-89.6L512 930.133 341.333 844.8 153.6 938.667c-34.133-8.534-68.267-42.667-68.267-72.534V157.867c0-42.667 29.867-72.534 68.267-72.534h721.067c34.133 0 64 29.867 64 72.534v704zM768 512H256c-25.6 0-42.667 17.067-42.667 42.667S230.4 597.333 256 597.333h512c25.6 0 42.667-17.066 42.667-42.666S793.6 512 768 512z m0-256H256c-25.6 0-42.667 17.067-42.667 42.667S230.4 341.333 256 341.333h512c25.6 0 42.667-17.066 42.667-42.666S793.6 256 768 256z" p-id="7422"></path></svg>