<?xml version="1.0" standalone="no"?><!DOCTYPE svg PUBLIC "-//W3C//DTD SVG 1.1//EN" "http://www.w3.org/Graphics/SVG/1.1/DTD/svg11.dtd"><svg t="1591178241981" class="icon" viewBox="0 0 1024 1024" version="1.1" xmlns="http://www.w3.org/2000/svg" p-id="11954" xmlns:xlink="http://www.w3.org/1999/xlink" width="200" height="200"><defs><style type="text/css"></style></defs><path d="M418.094529 619.310459V616.629461c6.490836 24.693399 28.644343 44.307014 56.018741 44.307014 31.325341 0 57.288687-26.104451 57.288687-57.288687s-26.104451-57.288687-57.288687-57.288686c-31.325341 0-57.288687 26.104451-57.288687 57.288686v2.539893H178.498002v-2.539893c0-31.325341-26.104451-57.288687-57.288687-57.288686-31.325341 0-57.288687 26.104451-57.288687 57.288686s26.104451 57.288687 57.288687 57.288687c26.104451 0 48.257958-18.202563 54.748794-41.626016h242.13642zM759.427863 263.725506h29.914289v12.981673h-29.914289zM819.256442 263.725506h29.91429v12.981673h-29.91429zM423.31542 858.906986h29.914289v12.981673H423.31542zM483.285104 858.906986h29.91429v12.981673h-29.91429zM544.524735 858.906986h29.914289v12.981673h-29.914289z" p-id="11955"></path><path d="M239.737633 542.408158h29.914289v12.981673h-29.914289zM300.977263 542.408158h29.91429v12.981673h-29.91429zM355.584952 542.408158h29.91429v12.981673H355.584952zM651.341326 555.389831h29.914289v12.981672h-29.914289zM712.439851 555.389831h29.91429v12.981672h-29.91429zM773.679482 555.389831h29.91429v12.981672h-29.91429zM269.651922 175.111479h29.91429v12.981672h-29.91429zM330.891553 175.111479h29.91429v12.981672h-29.91429zM392.131184 175.111479h29.914289v12.981672h-29.914289zM702.139176 744.329613c-31.325341 0-57.288687 26.104451-57.288687 57.288687 0 31.325341 26.104451 57.288687 57.288687 57.288686 31.325341 0 57.288687-26.104451 57.288687-57.288686 0-31.325341-26.104451-57.288687-57.288687-57.288687z" p-id="11956"></path><path d="M901.379633 562.021772c-31.325341 0-57.288687 26.104451-57.288686 57.288687v3.950944H695.507234c-19.472509 0-40.35607 2.539893-50.79785 18.202563L547.064627 787.36668c-7.760783 11.711727-27.374397 19.472509-41.626016 19.47251H362.216894V802.888246c0-31.325341-26.104451-57.288687-57.288687-57.288687s-57.288687 26.104451-57.288687 57.288687c0 31.325341 26.104451 57.288687 57.288687 57.288687 26.104451 0 46.846906-16.932617 54.748795-40.35607h144.632768c18.202563 0 43.037068-9.171834 53.337743-24.6934l97.644757-145.902714c6.490836-10.44178 24.693399-11.711727 40.35607-11.711727h150.982499c7.760783 23.423453 28.644343 40.35607 54.748794 40.35607 31.325341 0 57.288687-26.104451 57.288687-57.288687s-26.104451-58.558633-57.288687-58.558633zM377.738459 420.070001c0-31.325341-26.104451-57.288687-57.288686-57.288686-31.325341 0-57.288687 26.104451-57.288687 57.288686 0 31.325341 26.104451 57.288687 57.288687 57.288687 31.325341 0 57.288687-26.104451 57.288686-57.288687zM549.745625 324.965137c28.644343 0 52.067797-20.883561 56.01874-48.257958H728.102522v-12.981673h-121.06821c-1.269946-29.91429-26.104451-53.337743-57.288687-53.337742-31.325341 0-57.288687 26.104451-57.288687 57.288686s25.963346 57.288687 57.288687 57.288687z" p-id="11957"></path><path d="M122.479261 293.639796c26.104451 0 46.846906-16.932617 54.748795-40.35607H356.996004c12.981673 0 32.595287 7.760783 40.35607 19.472509l97.644757 153.663498c10.44178 15.662671 35.13518 26.104451 53.337743 26.104451h115.847319c7.760783 23.423453 28.644343 40.35607 54.748795 40.35607 31.325341 0 57.288687-26.104451 57.288686-57.288687 0-31.325341-26.104451-57.288687-57.288686-57.288687-31.325341 0-57.288687 26.104451-57.288687 57.288687v3.950944h-113.307427c-14.392724 0-33.865234-7.760783-41.626017-19.47251l-97.644757-153.663497c-10.44178-16.932617-33.865234-24.693399-50.79785-24.693399H178.498002v-3.950944c0-31.325341-26.104451-57.288687-57.288687-57.288687-31.325341 0-57.288687 26.104451-57.288687 57.288687s27.374397 55.877635 58.558633 55.877635z" p-id="11958"></path></svg>