<?xml version="1.0" standalone="no"?><!DOCTYPE svg PUBLIC "-//W3C//DTD SVG 1.1//EN" "http://www.w3.org/Graphics/SVG/1.1/DTD/svg11.dtd"><svg t="1591178127091" class="icon" viewBox="0 0 1024 1024" version="1.1" xmlns="http://www.w3.org/2000/svg" p-id="7888" xmlns:xlink="http://www.w3.org/1999/xlink" width="200" height="200"><defs><style type="text/css"></style></defs><path d="M934.112784 621.61656c2.284019-17.887392 3.847631-35.905768 3.847631-54.150294 0-182.111664-116.140137-340.309686-283.720853-399.62563-1.535983-76.933183-64.131623-138.891304-141.423987-138.891304-77.347622 0-139.985218 62.031798-141.451616 139.02638C204.01758 227.220025 87.670735 385.203152 87.670735 567.467289c0 18.243503 1.563612 36.265972 3.847632 54.150294-36.521798 25.63382-60.533678 67.899436-60.533679 115.907847 0 78.268598 63.453171 141.714605 141.714606 141.714605 15.361873 0 29.865191-3.065825 43.718711-7.583722 78.717829 76.722382 183.966918 120.955816 296.39757 120.955816 112.472608 0 217.623459-44.358277 296.272727-120.993678 13.881149 4.546549 28.439726 7.621585 43.843554 7.621584 78.261435 0 141.714605-63.447031 141.714606-141.714605 0-48.012504-24.01188-90.278119-60.533678-115.90887zM512.815575 85.636403c46.957475 0 85.028559 38.069037 85.028559 85.028558s-38.072107 85.028559-85.028559 85.028559-85.028559-38.069037-85.028559-85.028559 38.071084-85.028559 85.028559-85.028558zM87.670735 737.52543c0-46.960545 38.072107-85.028559 85.028559-85.028559s85.028559 38.069037 85.028559 85.028559c0 46.960545-38.072107 85.028559-85.028559 85.028558s-85.028559-38.069037-85.028559-85.028558z m425.14484 198.400652c-92.004437 0-178.333618-34.144658-245.150396-93.871971 28.522614-25.924439 46.749744-62.951751 46.749744-104.528681 0-78.268598-63.453171-141.714605-141.714606-141.714606-9.18929 0-18.129916 1.034563-26.834158 2.705622-0.858554-10.289344-1.508353-20.623713-1.508354-31.048134 0-154.883533 96.958262-289.578258 237.399875-343.202572 21.146623 51.662637 71.78493 88.11485 131.058918 88.11485 59.259662 0 109.897969-36.435841 131.044592-88.076988C784.468578 278.003642 881.275391 412.737252 881.275391 567.467289c0 10.42442-0.595564 20.762883-1.453095 31.052227-8.718569-1.678222-17.686824-2.708692-26.889416-2.708692-78.261435 0-141.714605 63.447031-141.714606 141.714606 0 41.635259 18.281365 78.704526 46.873564 104.632035-66.762543 59.69559-153.21759 93.768617-245.276263 93.768617z m340.115258-113.372094c-46.957475 0-85.028559-38.069037-85.028559-85.028558 0-46.960545 38.072107-85.028559 85.028559-85.028559s85.028559 38.069037 85.028559 85.028559c0.001023 46.959521-38.071084 85.028559-85.028559 85.028558z" p-id="7889"></path></svg>