<?xml version="1.0" standalone="no"?><!DOCTYPE svg PUBLIC "-//W3C//DTD SVG 1.1//EN" "http://www.w3.org/Graphics/SVG/1.1/DTD/svg11.dtd"><svg t="1592906897989" class="icon" viewBox="0 0 1024 1024" version="1.1" xmlns="http://www.w3.org/2000/svg" p-id="3378" xmlns:xlink="http://www.w3.org/1999/xlink" width="200" height="200"><defs><style type="text/css"></style></defs><path d="M813.741 214.105H191.472c-28.722 0-51.967 22.841-51.967 51.139v510.884c0 28.119 23.244 51.079 51.967 51.079H813.74c28.571 0 51.846-22.96 51.846-51.079V265.245c0-28.299-23.274-51.14-51.845-51.14z m-426.266 38.407c14.316 0 25.908 11.331 25.908 25.495 0 14.104-11.592 25.555-25.908 25.555-14.286 0-25.877-11.45-25.877-25.555-0.001-14.164 11.591-25.495 25.877-25.495z m-79.358 0c14.286 0 25.938 11.331 25.938 25.495 0 14.104-11.652 25.555-25.938 25.555-14.346 0-25.968-11.45-25.968-25.555 0-14.164 11.622-25.495 25.968-25.495z m-77.813 0c14.316 0 25.877 11.331 25.877 25.495 0 14.104-11.562 25.555-25.877 25.555-14.316 0-25.877-11.45-25.877-25.555-0.001-14.164 11.561-25.495 25.877-25.495z m583.437 523.616H191.442V342.415h622.299v433.713z" fill="#333333" p-id="3379"></path><path d="M268.798 459.814h147.015v36.004H268.798zM268.798 543.822h147.015v36.004H268.798zM268.798 627.831h147.015v36.004H268.798zM445.816 459.814h288.029v36.004H445.816zM445.816 543.822h288.029v36.004H445.816zM445.816 627.831h288.029v36.004H445.816z" fill="#333333" p-id="3380"></path></svg>