<?xml version="1.0" standalone="no"?><!DOCTYPE svg PUBLIC "-//W3C//DTD SVG 1.1//EN" "http://www.w3.org/Graphics/SVG/1.1/DTD/svg11.dtd"><svg t="1590211585994" class="icon" viewBox="0 0 1024 1024" version="1.1" xmlns="http://www.w3.org/2000/svg" p-id="2992" xmlns:xlink="http://www.w3.org/1999/xlink" width="200" height="200"><defs><style type="text/css"></style></defs><path d="M219.428571 292.571429h73.142858V219.428571H219.428571v73.142858z m73.142858 182.857142H219.428571v73.142858h73.142858v-73.142858z m0 365.714286v-73.142857H219.428571v73.142857h73.142858zM804.571429 73.142857H219.428571c-80.457143 0-146.285714 65.828571-146.285714 146.285714v585.142858c0 80.457143 65.828571 146.285714 146.285714 146.285714h292.571429v-73.142857H219.428571c-43.885714 0-73.142857-29.257143-73.142857-73.142857V694.857143h731.428572V804.571429h73.142857V219.428571c0-80.457143-65.828571-146.285714-146.285714-146.285714z m73.142857 548.571429H146.285714v-219.428572h731.428572v219.428572z m0-292.571429H146.285714V219.428571c0-43.885714 29.257143-73.142857 73.142857-73.142857h585.142858c43.885714 0 73.142857 29.257143 73.142857 73.142857v109.714286zM731.428571 950.857143h73.142858v-73.142857h-73.142858v73.142857z m-146.285714 0h73.142857v-73.142857H585.142857v73.142857z m292.571429 0h73.142857v-73.142857h-73.142857v73.142857z" p-id="2993"></path></svg>