<?xml version="1.0" standalone="no"?><!DOCTYPE svg PUBLIC "-//W3C//DTD SVG 1.1//EN" "http://www.w3.org/Graphics/SVG/1.1/DTD/svg11.dtd"><svg t="1589445023799" class="icon" viewBox="0 0 1024 1024" version="1.1" xmlns="http://www.w3.org/2000/svg" p-id="15663" xmlns:xlink="http://www.w3.org/1999/xlink" width="200" height="200"><defs><style type="text/css"></style></defs><path d="M39.978 415.318H76.93v151.613H39.978z" p-id="15664" fill="#ffffff"></path><path d="M64.975 473.825h162.3v36.952h-162.3z" p-id="15665" fill="#ffffff"></path><path d="M190.177 474.126h36.952v91.981h-36.952zM190.177 415.318h36.952v36.027h-36.952zM425.663 504.135c-3.084-6.186-7.078-10.254-14.783-13.424 6.959-2.921 8.485-7.1 11.966-12.537 3.48-5.439 5.22-12.135 5.22-20.09 0-12.429-3.838-22.248-11.513-29.458-7.677-7.208-18.102-13.277-31.276-13.277H241.628v36.41l147.963-0.001s2.885 0.8 3.079 3.9c0.197 3.135 0.205 6.519 0.205 6.519s0.36 4.466-0.616 8.725c-0.744 3.247-4.061 3.194-5.709 3.194l-111.192 0.039v34.064l113.578-0.037s2.387-0.116 3.657 0.73c1.521 1.014 1.913 2.61 1.913 2.61s0.143 9.822-0.027 17.714c-0.021 0.938 0.247 0.855-0.776 2.216-0.995 1.325-2.458 0.94-2.458 0.94l-116.557 0.144 0.155 33.593h116.056c13.361 0 17.847-2.021 26.021-9.295 8.391-7.467 13.197-18.277 13.197-31.329 0.001-8.453-1.155-14.732-4.454-21.35z" p-id="15666" fill="#ffffff"></path><path d="M241.629 474.126h34.489v91.981h-34.489zM478.379 566.107V459.969c0-5.442 4.413-9.854 9.854-9.854h96.075c5.441 0 9.854 4.412 9.854 9.854v106.139h32.847V453.533c0-20.409-16.545-36.953-36.953-36.953H481.664c-20.408 0-36.952 16.544-36.952 36.953v112.575h33.667z" p-id="15667" fill="#ffffff"></path><path d="M475.506 483.679h120.3v33.257h-120.3zM783.645 474.107l-94.146-0.201c-12.044 0-11.218-5.404-11.218-10.551 0-5.947-0.826-12.195 11.218-12.195l102.483 0.084h24.634V415.44H689.499c-25.628 0-46.478 20.85-46.478 46.478s20.85 46.478 46.478 46.478h127.117v-9.114l-32.971-25.175z" p-id="15668" fill="#ffffff"></path><path d="M650.411 530.831l127.118-0.265c12.044 0 11.218-5.404 11.218-10.551 0-5.948 0.826-12.195-11.218-12.195l-110.694-10.593-16.424-25.127h127.118c25.627 0 46.477 17.943 46.477 46.478 0 25.629-14.69 46.479-40.318 46.479H650.411v-34.226zM837.944 415.439h160.742v35.906H837.944zM837.944 529.991h160.742v35.906H837.944zM837.944 473.331h152.428v35.906H837.944z" p-id="15669" fill="#ffffff"></path><path d="M873.851 415.439l0.128 150.306h-35.905l-0.13-150.306zM125.052 398.396h-16.153v-21.942H54.044v-16.153h54.854v-9.692c0-3.499-1.167-5.249-3.5-5.249H59.63c-2.244 0-3.365 1.745-3.365 5.237v47.8H40.112v-47.829c0-5.823 1.817-10.837 5.451-15.047 3.635-4.209 8.323-6.314 14.067-6.314h45.769c5.832 0 10.566 2.105 14.201 6.314 3.635 4.21 5.452 9.225 5.452 15.047v47.828zM307.314 352.628c0 6.192-1.706 11.488-5.116 15.884-3.681 4.937-8.526 7.404-14.538 7.404h-50.882v22.48h-16.154v-69.19h67.036c6.011 0 10.857 2.469 14.538 7.403 3.41 4.489 5.116 9.827 5.116 16.019z m-16.153 0c0-4.846-1.167-7.269-3.5-7.269h-50.882v14.403h50.882c2.333 0 3.5-2.376 3.5-7.134zM487.826 398.396h-16.153v-21.942h-54.854v-16.153h54.854v-9.692c0-3.499-1.167-5.249-3.5-5.249h-45.768c-2.244 0-3.365 1.745-3.365 5.237v47.8h-16.154v-47.829c0-5.823 1.817-10.837 5.452-15.047 3.634-4.209 8.323-6.314 14.067-6.314h45.768c5.832 0 10.566 2.105 14.201 6.314 3.634 4.21 5.452 9.225 5.452 15.047v47.828zM659.589 398.396h-53.575c-6.281 0-11.622-2.083-16.019-6.247-4.398-4.165-6.596-9.38-6.596-15.653v-25.391c0-6.27 2.197-11.488 6.596-15.653 4.396-4.165 9.737-6.247 16.019-6.247h53.575v16.153h-53.575c-4.308 0-6.461 1.922-6.461 5.767v25.349c0 3.845 2.153 5.767 6.461 5.767h53.575v16.155zM829.064 398.396H812.91v-26.519h-41.594v26.519h-16.153v-69.19h16.153v26.518h41.594v-26.518h16.154v69.19zM998.539 345.359h-57.748v10.365h53.979v16.153h-53.979v10.365h57.614v16.154h-73.768v-69.19h73.901v16.153z" p-id="15670" fill="#ffffff"></path></svg>