<?xml version="1.0" standalone="no"?><!DOCTYPE svg PUBLIC "-//W3C//DTD SVG 1.1//EN" "http://www.w3.org/Graphics/SVG/1.1/DTD/svg11.dtd"><svg t="1589365618465" class="icon" viewBox="0 0 1024 1024" version="1.1" xmlns="http://www.w3.org/2000/svg" p-id="10777" xmlns:xlink="http://www.w3.org/1999/xlink" width="200" height="200"><defs><style type="text/css"></style></defs><path d="M512 939.52c-236.032 0-427.52-192-427.52-427.52S275.968 84.48 512 84.48 939.52 276.48 939.52 512s-191.488 427.52-427.52 427.52z m0-790.528c-200.192 0-363.008 162.816-363.008 363.008 0 200.192 162.816 363.008 363.008 363.008 200.192 0 363.008-162.816 363.008-363.008 0-200.192-162.816-363.008-363.008-363.008z" p-id="10778"></path><path d="M524.8 643.584v-1.536h-13.312c-15.872 0-29.184 5.12-38.912 15.36-10.752 10.24-16.384 23.04-16.384 38.912 0 14.848 5.632 28.672 15.872 38.912s24.064 15.872 38.912 15.872h1.024c14.336 0 27.648-5.12 38.4-15.36 10.752-10.752 16.384-24.064 16.384-39.424 0-15.872-5.632-28.672-15.872-38.912-6.656-7.168-15.872-11.776-26.112-13.824zM616.96 328.192c-25.088-22.528-58.368-33.792-98.816-33.792-46.08 0-83.456 13.824-110.08 40.96-26.624 26.624-39.936 63.488-39.936 108.544v13.312h87.04v-13.312c0-22.528 4.608-39.424 13.312-51.2 8.704-12.8 24.064-18.944 45.568-18.944 17.408 0 30.72 4.608 39.424 13.312 8.704 9.216 13.312 22.016 13.312 38.4 0 11.264-4.096 22.528-13.312 33.792l-9.216 10.24c-37.376 32.256-58.88 56.32-67.584 73.728-8.704 16.384-12.8 36.352-12.8 60.928v23.04h88.064V604.16c0-12.288 2.56-22.528 7.68-32.256 4.608-9.216 11.776-18.432 20.992-26.112 37.376-32.768 46.592-41.984 50.176-46.592 16.384-20.992 24.576-47.616 24.576-78.336 0.512-38.912-12.288-70.144-38.4-92.672z" p-id="10779"></path></svg>