<?xml version="1.0" standalone="no"?><!DOCTYPE svg PUBLIC "-//W3C//DTD SVG 1.1//EN" "http://www.w3.org/Graphics/SVG/1.1/DTD/svg11.dtd"><svg t="1588219012240" class="icon" viewBox="0 0 1024 1024" version="1.1" xmlns="http://www.w3.org/2000/svg" p-id="4653" xmlns:xlink="http://www.w3.org/1999/xlink" width="200" height="200"><defs><style type="text/css"></style></defs><path d="M466.432 432.64c247.30112 0 419.84-62.464 419.84-139.776V208.896c0-77.312-172.53888-139.776-419.84-139.776-247.296 0-391.68 62.464-391.68 139.776v83.968c0 77.312 144.384 139.776 391.68 139.776zM415.232 768c-169.97888-6.144-268.8-45.056-321.01888-96.768-13.31712 13.31712-19.968 27.14112-19.968 41.984v112.128c0 77.312 144.384 139.776 391.68 139.776 24.576 0 48.64-1.024 72.704-2.048C475.136 916.48 430.08 847.36 415.232 768zM410.112 711.68c0.51712-73.728 26.624-141.824 70.144-194.56h-15.872c-200.192 0-312.832-40.96-370.176-98.304-13.31712 13.312-19.968 27.136-19.968 41.984v112.64c0 70.656 122.88 129.536 335.872 138.24z" p-id="4654"></path><path d="M718.32576 467.79392c-139.12064 0-251.89376 112.77824-251.89376 251.904 0 139.12064 112.77312 251.89888 251.89376 251.89888 139.12576 0 251.904-112.77824 251.904-251.89888 0-139.12064-112.77824-251.904-251.904-251.904z m-171.89376 408.65792s34.41152-9.91232 38.5792-30.22848l62.5664-248.17152s9.56416-24.16128-24.16128-34.24256h145.91488s-55.54176 31.28832-66.67264 109.13792c0 0-26.40384 2.08896-34.75456 20.84864 0 0-21.89824 2.7904-27.63264 7.4752 0 0 62.04928 15.64672 58.9312 64.13312 0 0 5.72416 41.7024-33.37728 77.68064 0 0-27.12064 29.71136-75.60704 33.36192h-43.78624z m148.93056-45.70624c28.15488-43.4432 19.46624-73.68704 19.46624-73.68704-8.33536-43.79136-50.83136-53.95968-50.83136-53.95968 5.72928-3.38432 12.25728-3.38432 12.25728-3.38432 15.6416-18.24256 37.0176-14.59712 37.0176-14.59712 9.89696-78.208 62.39232-106.71104 62.39232-106.71104 33.36704-25.03168 94.53056-25.03168 94.53056-25.03168-62.5664 27.81184-71.94112 49.00864-71.94112 49.00864-21.89824 29.18912-25.02656 71.59296-25.02656 71.59296-26.4192 0-35.46624 19.8144-35.46624 19.8144-23.62368 0.69632-28.84608 10.0864-28.84608 10.0864 22.25152 0.34304 42.05568 15.80544 42.05568 15.80544 28.8512 23.12192 21.20192 71.42912 21.20192 71.42912-7.64416 42.0608-55.60832 68.82816-55.60832 68.82816-28.16 19.79904-96.61952 26.0608-96.61952 26.0608 55.26016-23.28064 75.4176-55.25504 75.4176-55.25504z m181.77536-172.05248s-19.10784 30.93504-59.4176 39.97184c0 0 54.90688 12.17024 57.69216 77.17376 0 0 3.47648 53.86752-37.54496 81.66912 0 0-23.9872 16-49.69984 18.93888h-81.32608s42.752-8.16128 68.13184-50.57024c0 0 21.888-36.14208 4.84864-84.11136 0 0-8.68352-30.23872-46.57152-39.28576 0 0 1.04448-2.42176 11.80672-3.81952 0 0 11.8272-19.46112 37.90336-13.90592 0 0 0-42.39872 25.35936-71.58784 0 0 25.03168-36.15232 54.92224-41.35936 0 0 21.888-2.78016 25.72288 23.29088 0 0 6.94784 37.53984-11.8272 63.59552z" p-id="4655"></path></svg>