<?xml version="1.0" standalone="no"?><!DOCTYPE svg PUBLIC "-//W3C//DTD SVG 1.1//EN" "http://www.w3.org/Graphics/SVG/1.1/DTD/svg11.dtd"><svg t="1589361926678" class="icon" viewBox="0 0 1024 1024" version="1.1" xmlns="http://www.w3.org/2000/svg" p-id="3792" xmlns:xlink="http://www.w3.org/1999/xlink" width="200" height="200"><defs><style type="text/css"></style></defs><path d="M810.666667 640c70.570667 0 128 57.429333 128 128s-57.429333 128-128 128-128-57.429333-128-128 57.429333-128 128-128z m-186.837334 85.333333a190.208 190.208 0 0 0-5.162666 42.666667c0 11.050667 1.109333 21.76 2.986666 32.256l2.176 10.410667H85.333333v-85.333334h538.496zM384 384c70.570667 0 128 57.429333 128 128s-57.429333 128-128 128-128-57.429333-128-128 57.429333-128 128-128z m-186.837333 85.333333a190.208 190.208 0 0 0-5.162667 42.666667c0 11.050667 1.109333 21.76 2.986667 32.256l2.176 10.410667H85.333333v-85.333334h111.829334zM938.666667 469.333333v85.333334h-367.829334c3.157333-13.781333 5.12-27.946667 5.12-42.666667 0-11.050667-1.109333-21.76-2.986666-32.256l-2.133334-10.410667h367.786667z m-128-341.333333c70.570667 0 128 57.429333 128 128s-57.429333 128-128 128-128-57.429333-128-128 57.429333-128 128-128z m-186.837334 85.333333a190.208 190.208 0 0 0-5.162666 42.666667c0 11.050667 1.109333 21.76 2.986666 32.256l2.176 10.410667H85.333333V213.333333h538.496z" fill="#999999" p-id="3793"></path></svg>