<?xml version="1.0" standalone="no"?><!DOCTYPE svg PUBLIC "-//W3C//DTD SVG 1.1//EN" "http://www.w3.org/Graphics/SVG/1.1/DTD/svg11.dtd"><svg t="1590286516774" class="icon" viewBox="0 0 1024 1024" version="1.1" xmlns="http://www.w3.org/2000/svg" p-id="8214" xmlns:xlink="http://www.w3.org/1999/xlink" width="200" height="200"><defs><style type="text/css"></style></defs><path d="M284.273778 514.503111m-28.444445 0a28.444444 28.444444 0 1 0 56.888889 0 28.444444 28.444444 0 1 0-56.888889 0Z" p-id="8215"></path><path d="M428.885333 514.503111m-28.444444 0a28.444444 28.444444 0 1 0 56.888889 0 28.444444 28.444444 0 1 0-56.888889 0Z" p-id="8216"></path><path d="M569.884444 514.503111m-28.444444 0a28.444444 28.444444 0 1 0 56.888889 0 28.444444 28.444444 0 1 0-56.888889 0Z" p-id="8217"></path><path d="M817.294222 530.545778a28.444444 28.444444 0 0 1-40.248889 0l-160.881777-160.881778a28.444444 28.444444 0 0 1 0-40.248889 28.416 28.416 0 0 1 40.220444 0l160.910222 160.910222a28.416 28.416 0 0 1 0 40.220445z" p-id="8218"></path><path d="M656.384 691.484444a28.416 28.416 0 1 1-40.220444-40.220444l160.881777-160.910222a28.444444 28.444444 0 0 1 40.248889 0 28.416 28.416 0 0 1 0 40.220444l-160.910222 160.910222z" p-id="8219"></path><path d="M56.888889 197.546667v625.777777h910.222222v-625.777777H56.888889z m853.333333 568.888889H113.777778v-512h796.444444v512z" p-id="8220"></path></svg>