<?xml version="1.0" standalone="no"?><!DOCTYPE svg PUBLIC "-//W3C//DTD SVG 1.1//EN" "http://www.w3.org/Graphics/SVG/1.1/DTD/svg11.dtd"><svg t="1590557930882" class="icon" viewBox="0 0 1051 1024" version="1.1" xmlns="http://www.w3.org/2000/svg" p-id="1706" xmlns:xlink="http://www.w3.org/1999/xlink" width="205.2734375" height="200"><defs><style type="text/css"></style></defs><path d="M123.006034 462.587845h354.299431V123.007085A123.006034 123.006034 0 0 0 354.299431 0.001051h-231.293397A124.057367 124.057367 0 0 0 0 123.007085v215.523393A124.057367 124.057367 0 0 0 123.006034 462.587845zM73.593354 123.007085a49.41268 49.41268 0 0 1 49.41268-49.41268h231.293397a49.41268 49.41268 0 0 1 49.41268 49.41268v262.833406H123.006034a49.41268 49.41268 0 0 1-49.41268-49.41268z m0 0M1051.333623 339.581812V123.007085A122.480367 122.480367 0 0 0 928.327589 0.001051h-228.139396A123.006034 123.006034 0 0 0 578.233493 123.007085V462.587845h352.196763A123.006034 123.006034 0 0 0 1051.333623 339.581812z m-73.593354 0a49.41268 49.41268 0 0 1-49.41268 49.41268h-277.552076V123.007085a49.41268 49.41268 0 0 1 49.41268-49.41268h228.139396a49.41268 49.41268 0 0 1 49.41268 49.41268z m0 0M700.188193 1024h233.396064A118.800699 118.800699 0 0 0 1051.333623 900.993966V683.367906a122.480367 122.480367 0 0 0-123.006034-123.006034H578.233493v339.580761a124.057367 124.057367 0 0 0 124.057367 123.006033z m-49.41268-388.99344h277.552076a49.41268 49.41268 0 0 1 49.41268 49.41268v216.574726a49.41268 49.41268 0 0 1-49.41268 49.41268h-228.139396a49.41268 49.41268 0 0 1-49.41268-49.41268z m0 0M123.006034 1024h231.293397a123.006034 123.006034 0 0 0 123.006034-123.006034v-339.58076H123.006034A124.057367 124.057367 0 0 0 0 683.367906v216.574727a124.057367 124.057367 0 0 0 123.006034 123.006033zM73.593354 683.367906a49.41268 49.41268 0 0 1 49.41268-49.41268h280.706077v265.987407a49.41268 49.41268 0 0 1-49.41268 49.41268h-231.293397a52.566681 52.566681 0 0 1-49.41268-49.41268z m0 0" p-id="1707"></path></svg>