<?xml version="1.0" standalone="no"?><!DOCTYPE svg PUBLIC "-//W3C//DTD SVG 1.1//EN" "http://www.w3.org/Graphics/SVG/1.1/DTD/svg11.dtd"><svg t="1590557993241" class="icon" viewBox="0 0 1084 1024" version="1.1" xmlns="http://www.w3.org/2000/svg" p-id="2448" xmlns:xlink="http://www.w3.org/1999/xlink" width="211.71875" height="200"><defs><style type="text/css"></style></defs><path d="M1011.953 51.2H54.212c-30.118 0-48.188 24.094-48.188 48.188v825.224c0 30.117 24.094 48.188 48.188 48.188h957.74c30.119 0 48.19-24.094 48.19-48.188V99.388c0-30.117-18.071-48.188-48.19-48.188zM403.576 99.388c30.118 0 48.189 24.094 48.189 48.188 0 30.118-24.094 48.189-48.189 48.189-30.117 0-48.188-24.094-48.188-48.189 0-30.117 18.07-48.188 48.188-48.188z m-150.588 0c30.118 0 48.188 24.094 48.188 48.188 0 30.118-24.094 48.189-48.188 48.189S204.8 171.67 204.8 147.576c0-30.117 24.094-48.188 48.188-48.188z m-144.564 0c30.117 0 48.188 24.094 48.188 48.188 0 30.118-24.094 48.189-48.188 48.189s-48.189-24.094-48.189-48.189c0-30.117 18.07-48.188 48.189-48.188z m903.529 819.2H54.212V243.953h957.74v674.635z" p-id="2449"></path><path d="M758.965 430.682c-18.07-18.07-42.165-12.047-60.236 6.024L463.812 665.6l-90.353-102.4c-18.07-18.07-42.165-18.07-60.235-6.024-18.071 18.071-18.071 42.165-6.024 60.236l114.447 126.494c0 6.023 6.024 6.023 6.024 12.047 6.023 6.023 18.07 12.047 30.117 12.047s18.07-6.024 30.118-12.047l6.023-6.024 265.036-259.011c18.07-18.07 18.07-42.165 0-60.236z" p-id="2450"></path></svg>