<?xml version="1.0" standalone="no"?><!DOCTYPE svg PUBLIC "-//W3C//DTD SVG 1.1//EN" "http://www.w3.org/Graphics/SVG/1.1/DTD/svg11.dtd"><svg t="1590211515787" class="icon" viewBox="0 0 1024 1024" version="1.1" xmlns="http://www.w3.org/2000/svg" p-id="2236" xmlns:xlink="http://www.w3.org/1999/xlink" width="200" height="200"><defs><style type="text/css"></style></defs><path d="M511.385061 830.999684a95.884579 95.884579 0 0 1 82.141123 46.344213l4.922075 9.268843c2.812614 6.136613 5.049921 12.592841 6.520151 19.368685l1.917692 12.017534c0.255692 2.94046 0.383538 5.880921 0.383538 8.885304l-0.383538 8.437843-1.406308 9.971996-0.830999 3.835383a95.884579 95.884579 0 0 1-185.696468 3.196153l-0.767077-3.196153A91.729581 91.729581 0 0 1 415.500482 926.884263l0.639231-11.058688 0.255692-1.917692c0.639231-4.474614 1.47023-8.885304 2.684768-13.104225l2.812614-8.437843 3.13223-7.223305A95.884579 95.884579 0 0 1 511.385061 830.999684z m-354.069788-172.080858a384.497162 384.497162 0 0 0 206.471459 206.599307c-7.862535 18.857301-12.209303 39.632293-12.209303 61.36613l0.063923 2.556922A448.867676 448.867676 0 0 1 93.328297 671.192053c21.861684 0.383538 43.595522-3.707537 64.050899-12.209303z m708.267423-0.063923c20.327531 8.565689 42.189215 12.656764 63.923052 12.33715a448.867676 448.867676 0 0 1-258.376978 258.249132l0.063923-2.556922c0-21.733838-4.346768-42.50883-12.273227-61.430054a384.433238 384.433238 0 0 0 206.66323-206.599306zM319.615903 598.575465H703.154219v69.676127a36.563986 36.563986 0 0 1-9.396689 24.674298 30.683065 30.683065 0 0 1-22.564837 10.227689h-319.615264a30.683065 30.683065 0 0 1-22.564837-10.227689 36.563986 36.563986 0 0 1-9.396689-24.610375V598.575465z m137.37064 34.838063h-83.099968c-8.821381 0-15.980763 7.798612-15.980763 17.450994 0 9.588458 7.159382 17.450993 15.980763 17.450993h83.099968c8.821381 0 15.980763-7.862535 15.980763-17.450993 0-9.588458-7.159382-17.450993-15.980763-17.450994zM95.885219 415.499842l9.20492 0.447461 8.629612 1.214538 6.200536 1.406308 2.045537 0.511384c4.474614 1.278461 8.949227 2.876537 13.168149 4.794229l2.556922 1.214538a95.884579 95.884579 0 0 1 6.136613 169.332166l-4.602459 2.556922 4.602459-2.556922a95.820656 95.820656 0 0 1-25.697067 10.227689l-6.647997 1.342384-5.944844 0.767077-5.113844 0.383538-7.926459 0.063923-10.48338-0.958846-8.309997-1.598076A95.820656 95.820656 0 0 1 0.00064 511.384421a95.884579 95.884579 0 0 1 65.393283-90.898581l8.309997-2.365153A92.432734 92.432734 0 0 1 95.885219 415.499842l-8.309997 0.383538c2.684768-0.255692 5.497383-0.383538 8.309997-0.383538z m830.999684 0l4.218922 0.063923 10.227688 1.022769 7.798612 1.47023a95.884579 95.884579 0 0 1 1.598077 186.207852l-6.90369 1.406308-7.926459 1.150615-6.584074 0.383538-7.926458-0.127846-6.520152-0.575308-9.396689-1.661999-9.460611-2.684768-5.689152-2.109461-5.177767-2.365153-0.063923-0.127846-6.136613-3.13223a95.884579 95.884579 0 0 1-47.494829-73.767202L831.000324 511.384421a95.884579 95.884579 0 0 1 46.344213-82.141123l9.268843-4.922075 7.031536-2.876537 9.652381-3.004384 5.753074-1.278461 10.227689-1.342384 7.606843-0.319615z m-223.730684 43.595522v104.578114H319.615903V459.095364h383.538316z m-246.103753 34.838064h-83.099968a15.788994 15.788994 0 0 0-13.80738 8.757458 18.793377 18.793377 0 0 0 0 17.38707 15.788994 15.788994 0 0 0 13.80738 8.757458h83.099968c5.753075 0 10.994765-3.323999 13.871303-8.757458a18.793377 18.793377 0 0 0 0-17.38707 15.788994 15.788994 0 0 0-13.871303-8.757458zM671.192693 319.615263a30.683065 30.683065 0 0 1 22.564837 10.227689 36.563986 36.563986 0 0 1 9.396689 24.610375v69.74005H319.615903v-69.676127C319.615903 335.148565 333.934667 319.615263 351.577429 319.615263h319.615264z m-214.142227 34.838064h-83.099968c-8.821381 0-15.980763 7.862535-15.980763 17.450993 0 9.588458 7.159382 17.450993 15.980763 17.450994h83.099968c8.821381 0 15.980763-7.798612 15.980763-17.450994 0-9.588458-7.159382-17.450993-15.980763-17.450993zM351.641352 93.327657L351.577429 95.884579c0 21.414223 4.282845 42.189215 12.273227 61.36613A384.816777 384.816777 0 0 0 157.251349 363.850016 158.209555 158.209555 0 0 0 95.885219 351.576789l-2.556922 0.063923A448.867676 448.867676 0 0 1 351.577429 93.327657z m319.487418 0a448.867676 448.867676 0 0 1 258.376978 258.376979L926.884903 351.576789c-21.733838 0-42.50883 4.346768-61.430054 12.273227a384.433238 384.433238 0 0 0-206.599306-206.66323c8.054305-19.112993 12.337149-39.887985 12.33715-61.302207l-0.063923-2.556922zM511.385061 0a95.884579 95.884579 0 0 1 90.898581 65.393283l2.365153 8.309997 1.086692 5.113844 1.214538 8.821381 0.319615 8.246074c0 3.196153-0.191769 6.456228-0.511384 9.652381L607.26964 95.884579c0 4.666383-0.319615 9.332766-1.022769 13.871302l-1.917691 9.588458-0.894923 3.387922-3.196153 9.140997-2.556922 5.753074A95.884579 95.884579 0 0 1 415.500482 95.884579l0.063923-4.218922 1.022769-10.227688 1.47023-7.798612A95.884579 95.884579 0 0 1 511.385061 0z" fill="#2178ED" p-id="2237"></path></svg>