<?xml version="1.0" standalone="no"?><!DOCTYPE svg PUBLIC "-//W3C//DTD SVG 1.1//EN" "http://www.w3.org/Graphics/SVG/1.1/DTD/svg11.dtd"><svg t="1590211601640" class="icon" viewBox="0 0 1024 1024" version="1.1" xmlns="http://www.w3.org/2000/svg" p-id="3172" xmlns:xlink="http://www.w3.org/1999/xlink" width="200" height="200"><defs><style type="text/css"></style></defs><path d="M740.565906 581.178513l-91.80176 48.204456-137.105416 71.922754-137.190735-71.922754-91.801759-48.204456L150.679876 511.985923l131.98636-69.277908L414.567277 511.985923l66.462427 34.894906a66.547744 66.547744 0 0 0 61.172734 0L608.664864 511.985923l131.901042-69.192591L872.466947 511.985923l-131.901041 69.19259z m131.901041 165.516184l-360.893535 189.405118-360.893536-189.405118 131.98636-69.19259 198.363468 104.172815a66.547744 66.547744 0 0 0 61.172734 0L740.565906 677.502107l131.901041 69.19259z m-721.787071-469.502866l360.893536-189.319801 360.893535 189.319801-131.901041 69.277907-91.80176 48.119139-137.105416 72.008071-137.190735-72.008071-91.801759-48.119139-131.98636-69.277907z m856.332959 209.02817L832.367666 394.588877l174.645169-91.631125a28.666721 28.666721 0 0 0 0-51.531843L542.202438 7.588149a65.438615 65.438615 0 0 0-61.172734 0L16.219306 251.425909a28.666721 28.666721 0 0 0 0 51.531843l174.64517 91.631125L16.219306 486.220001a28.666721 28.666721 0 0 0 0 51.531843l174.64517 91.631125L16.219306 720.928776a28.752038 28.752038 0 0 0 0 51.61716l464.810398 243.923078a66.547744 66.547744 0 0 0 61.172734 0l464.810397-243.923078a28.752038 28.752038 0 0 0 0-51.61716L832.367666 629.382969l174.645169-91.631125a28.666721 28.666721 0 0 0 0-51.531843z" p-id="3173"></path></svg>