<?xml version="1.0" standalone="no"?><!DOCTYPE svg PUBLIC "-//W3C//DTD SVG 1.1//EN" "http://www.w3.org/Graphics/SVG/1.1/DTD/svg11.dtd"><svg t="1592211575937" class="icon" viewBox="0 0 1024 1024" version="1.1" xmlns="http://www.w3.org/2000/svg" p-id="2669" xmlns:xlink="http://www.w3.org/1999/xlink" width="200" height="200"><defs><style type="text/css"></style></defs><path d="M30.4 827.2c-16 0-30.4-16-30.4-33.6v-65.6c0-123.2 59.2-235.2 155.2-291.2l8-4.8-6.4-8C128 385.6 112 337.6 112 288c0-110.4 78.4-200 176-203.2 0 1.6-1.6 1.6-1.6 3.2-14.4 22.4-27.2 46.4-35.2 73.6-46.4 19.2-78.4 68.8-78.4 126.4 0 52.8 27.2 100.8 68.8 121.6 12.8 4.8 20.8 17.6 20.8 32 0 14.4-8 27.2-22.4 32l-6.4 1.6C131.2 505.6 60.8 608 60.8 728v30.4H96c-3.2 22.4-6.4 46.4-6.4 68.8H30.4z m904 0c0-22.4-1.6-46.4-6.4-68.8h35.2v-30.4c0-120-70.4-222.4-172.8-251.2l-6.4-3.2c-12.8-4.8-22.4-17.6-22.4-32 0-14.4 8-25.6 20.8-32 41.6-22.4 68.8-68.8 68.8-121.6 0-56-32-107.2-78.4-126.4-8-25.6-19.2-51.2-35.2-73.6 0-1.6-1.6-1.6-1.6-3.2 97.6 1.6 176 92.8 176 203.2 0 49.6-16 99.2-46.4 136l-4.8 8 8 4.8c96 56 155.2 168 155.2 291.2v65.6c0 19.2-12.8 33.6-30.4 33.6h-59.2zM512 571.2c-123.2 0-224-104-224-232S388.8 107.2 512 107.2s224 104 224 232-100.8 232-224 232z m0-400c-88 0-160 75.2-160 168s72 168 160 168S672 432 672 339.2s-72-168-160-168z" fill="" p-id="2670"></path><path d="M864 939.2c-17.6 0-32-14.4-32-32 0-176-147.2-320-328-320s-328 144-328 320c0 17.6-14.4 32-32 32s-32-14.4-32-32c0-211.2 176-384 392-384S896 696 896 907.2c0 17.6-14.4 32-32 32z" fill="" p-id="2671"></path></svg>