<?xml version="1.0" standalone="no"?><!DOCTYPE svg PUBLIC "-//W3C//DTD SVG 1.1//EN" "http://www.w3.org/Graphics/SVG/1.1/DTD/svg11.dtd"><svg t="1591007724852" class="icon" viewBox="0 0 1024 1024" version="1.1" xmlns="http://www.w3.org/2000/svg" p-id="6739" xmlns:xlink="http://www.w3.org/1999/xlink" width="200" height="200"><defs><style type="text/css"></style></defs><path d="M450.187676 1023.989949a32.382185 32.382185 0 0 1-4.26742-0.281148 514.098561 514.098561 0 1 1 577.808627-577.668053 32.13116 32.13116 0 0 1-27.642838 36.067227 32.502677 32.502677 0 0 1-4.257379 0.281148 32.13116 32.13116 0 0 1-31.809849-27.923987 449.836241 449.836241 0 1 0-505.65409 505.54364 32.13116 32.13116 0 0 1-4.187092 63.991214z" p-id="6740"></path><path d="M450.167594 797.475311a32.191406 32.191406 0 0 1-7.972544-1.004098 289.692531 289.692531 0 0 1-218.060126-280.926749A289.933515 289.933515 0 0 1 514.098561 225.610949c131.918494 0 247.2794 89.043477 280.555233 216.533896a32.133168 32.133168 0 0 1-62.183836 16.226236 225.711359 225.711359 0 0 0-444.072714 57.173383 223.341686 223.341686 0 0 0 48.246945 139.479357 226.926318 226.926318 0 0 0 121.445744 79.193269 32.13116 32.13116 0 0 1-7.922339 63.258221z" p-id="6741"></path><path d="M717.147411 993.69629a65.266419 65.266419 0 0 1-13.053284-1.335452 63.820517 63.820517 0 0 1-49.371535-47.021944l-73.128512-285.30462a64.26232 64.26232 0 0 1 82.336097-77.014374l281.318348 92.32688a64.26232 64.26232 0 0 1 14.740169 115.09984l-109.446764 70.45761-82.617245 107.629345a63.760271 63.760271 0 0 1-50.777274 25.162715z m-0.160656-64.071542z m-0.21086 0z m0.140573-0.180738l82.617246-107.619304a64.131787 64.131787 0 0 1 16.196113-14.900825l109.446764-70.45761-281.328389-92.387126 73.058225 285.304619z m208.491065-193.218723z m-281.559331-92.32688z" p-id="6742"></path></svg>