<?xml version="1.0" standalone="no"?><!DOCTYPE svg PUBLIC "-//W3C//DTD SVG 1.1//EN" "http://www.w3.org/Graphics/SVG/1.1/DTD/svg11.dtd"><svg t="1590286690926" class="icon" viewBox="0 0 1024 1024" version="1.1" xmlns="http://www.w3.org/2000/svg" p-id="14278" xmlns:xlink="http://www.w3.org/1999/xlink" width="200" height="200"><defs><style type="text/css"></style></defs><path d="M917.333333 85.333333H106.666667C47.850667 85.333333 0 133.184 0 192v597.333333c0 58.816 47.850667 106.666667 106.666667 106.666667h810.666666c58.816 0 106.666667-47.850667 106.666667-106.666667V192c0-58.816-47.850667-106.666667-106.666667-106.666667zM106.666667 128h810.666666c35.285333 0 64 28.714667 64 64v106.666667H42.666667V192c0-35.285333 28.714667-64 64-64z m810.666666 725.333333H106.666667c-35.285333 0-64-28.714667-64-64V341.333333h938.666666v448c0 35.285333-28.714667 64-64 64z" fill="#515151" p-id="14279"></path><path d="M170.666667 213.333333m-42.666667 0a42.666667 42.666667 0 1 0 85.333333 0 42.666667 42.666667 0 1 0-85.333333 0Z" fill="#515151" p-id="14280"></path><path d="M298.666667 213.333333m-42.666667 0a42.666667 42.666667 0 1 0 85.333333 0 42.666667 42.666667 0 1 0-85.333333 0Z" fill="#515151" p-id="14281"></path><path d="M426.666667 213.333333m-42.666667 0a42.666667 42.666667 0 1 0 85.333333 0 42.666667 42.666667 0 1 0-85.333333 0Z" fill="#515151" p-id="14282"></path></svg>